<?xml version="1.0" encoding="UTF-8" standalone="no"?>
<!-- Created with Inkscape (http://www.inkscape.org/) -->

<svg
   width="116.71732mm"
   height="81.708015mm"
   viewBox="0 0 116.71732 81.708015"
   version="1.1"
   id="svg1"
   xml:space="preserve"
   xmlns="http://www.w3.org/2000/svg"
   xmlns:svg="http://www.w3.org/2000/svg"><defs
     id="defs1"><linearGradient
       x1="0"
       y1="0"
       x2="1"
       y2="0"
       gradientUnits="userSpaceOnUse"
       gradientTransform="matrix(34.235343,0,0,33.004983,168.81343,967.25025)"
       spreadMethod="pad"
       id="linearGradient19"><stop
         style="stop-opacity:1;stop-color:#efd04d"
         offset="0"
         id="stop18" /><stop
         style="stop-opacity:1;stop-color:#fbe56a"
         offset="1"
         id="stop19" /></linearGradient><linearGradient
       x1="0"
       y1="0"
       x2="1"
       y2="0"
       gradientUnits="userSpaceOnUse"
       gradientTransform="matrix(34.235343,0,0,33.004983,115.6538,998.90106)"
       spreadMethod="pad"
       id="linearGradient21"><stop
         style="stop-opacity:1;stop-color:#fbe56a"
         offset="0"
         id="stop20" /><stop
         style="stop-opacity:1;stop-color:#efd04d"
         offset="1"
         id="stop21" /></linearGradient><linearGradient
       x1="0"
       y1="0"
       x2="1"
       y2="0"
       gradientUnits="userSpaceOnUse"
       gradientTransform="matrix(34.235343,0,0,33.004983,474.11501,995.8964)"
       spreadMethod="pad"
       id="linearGradient23"><stop
         style="stop-opacity:1;stop-color:#efd04d"
         offset="0"
         id="stop22" /><stop
         style="stop-opacity:1;stop-color:#fbe56a"
         offset="1"
         id="stop23" /></linearGradient><linearGradient
       x1="0"
       y1="0"
       x2="1"
       y2="0"
       gradientUnits="userSpaceOnUse"
       gradientTransform="matrix(-296.07918,-226.30077,234.7368,-285.4386,341.43215,1112.2705)"
       spreadMethod="pad"
       id="linearGradient27"><stop
         style="stop-opacity:1;stop-color:#fbe67a"
         offset="0"
         id="stop24" /><stop
         style="stop-opacity:1;stop-color:#f1d451"
         offset="0.292308"
         id="stop25" /><stop
         style="stop-opacity:1;stop-color:#ffed8b"
         offset="0.666667"
         id="stop26" /><stop
         style="stop-opacity:1;stop-color:#efd04d"
         offset="1"
         id="stop27" /></linearGradient><linearGradient
       x1="0"
       y1="0"
       x2="1"
       y2="0"
       gradientUnits="userSpaceOnUse"
       gradientTransform="matrix(-296.07918,-226.30077,234.7368,-285.4386,344.5724,1108.452)"
       spreadMethod="pad"
       id="linearGradient31"><stop
         style="stop-opacity:1;stop-color:#fbe67a"
         offset="0"
         id="stop28" /><stop
         style="stop-opacity:1;stop-color:#f1d451"
         offset="0.292308"
         id="stop29" /><stop
         style="stop-opacity:1;stop-color:#ffed8b"
         offset="0.666667"
         id="stop30" /><stop
         style="stop-opacity:1;stop-color:#efd04d"
         offset="1"
         id="stop31" /></linearGradient><linearGradient
       x1="0"
       y1="0"
       x2="1"
       y2="0"
       gradientUnits="userSpaceOnUse"
       gradientTransform="matrix(-296.07918,-226.30077,234.7368,-285.4386,490.81612,930.62046)"
       spreadMethod="pad"
       id="linearGradient35"><stop
         style="stop-opacity:1;stop-color:#fbe67a"
         offset="0"
         id="stop32" /><stop
         style="stop-opacity:1;stop-color:#f1d451"
         offset="0.292308"
         id="stop33" /><stop
         style="stop-opacity:1;stop-color:#ffed8b"
         offset="0.666667"
         id="stop34" /><stop
         style="stop-opacity:1;stop-color:#efd04d"
         offset="1"
         id="stop35" /></linearGradient><linearGradient
       x1="0"
       y1="0"
       x2="1"
       y2="0"
       gradientUnits="userSpaceOnUse"
       gradientTransform="matrix(34.235343,0,0,33.004983,218.35983,998.90106)"
       spreadMethod="pad"
       id="linearGradient37"><stop
         style="stop-opacity:1;stop-color:#fbc938"
         offset="0"
         id="stop36" /><stop
         style="stop-opacity:1;stop-color:#efd04d"
         offset="1"
         id="stop37" /></linearGradient><linearGradient
       x1="0"
       y1="0"
       x2="1"
       y2="0"
       gradientUnits="userSpaceOnUse"
       gradientTransform="matrix(34.235343,0,0,33.004983,149.88914,998.90106)"
       spreadMethod="pad"
       id="linearGradient39"><stop
         style="stop-opacity:1;stop-color:#fbc938"
         offset="0"
         id="stop38" /><stop
         style="stop-opacity:1;stop-color:#ef954d"
         offset="1"
         id="stop39" /></linearGradient><linearGradient
       x1="0"
       y1="0"
       x2="1"
       y2="0"
       gradientUnits="userSpaceOnUse"
       gradientTransform="matrix(34.235343,0,0,33.004983,81.087536,998.90106)"
       spreadMethod="pad"
       id="linearGradient41"><stop
         style="stop-opacity:1;stop-color:#fbc938"
         offset="0"
         id="stop40" /><stop
         style="stop-opacity:1;stop-color:#ef954d"
         offset="1"
         id="stop41" /></linearGradient><linearGradient
       x1="0"
       y1="0"
       x2="1"
       y2="0"
       gradientUnits="userSpaceOnUse"
       gradientTransform="matrix(34.235343,0,0,33.004983,149.90251,935.59937)"
       spreadMethod="pad"
       id="linearGradient43"><stop
         style="stop-opacity:1;stop-color:#fbc938"
         offset="0"
         id="stop42" /><stop
         style="stop-opacity:1;stop-color:#ef954d"
         offset="1"
         id="stop43" /></linearGradient><linearGradient
       x1="0"
       y1="0"
       x2="1"
       y2="0"
       gradientUnits="userSpaceOnUse"
       gradientTransform="matrix(34.235343,0,0,33.004983,485.89274,964.16777)"
       spreadMethod="pad"
       id="linearGradient45"><stop
         style="stop-opacity:1;stop-color:#fbc938"
         offset="0"
         id="stop44" /><stop
         style="stop-opacity:1;stop-color:#ef954d"
         offset="1"
         id="stop45" /></linearGradient><linearGradient
       x1="0"
       y1="0"
       x2="1"
       y2="0"
       gradientUnits="userSpaceOnUse"
       gradientTransform="matrix(30.34556,0,0,29.254993,220.75038,777.24484)"
       spreadMethod="pad"
       id="linearGradient63"><stop
         style="stop-opacity:1;stop-color:#fbc938"
         offset="0"
         id="stop62" /><stop
         style="stop-color:#ef9506;stop-opacity:1;"
         offset="1"
         id="stop63" /></linearGradient><linearGradient
       x1="0"
       y1="0"
       x2="1"
       y2="0"
       gradientUnits="userSpaceOnUse"
       gradientTransform="matrix(-296.07918,-226.30077,234.7368,-285.4386,445.30666,987.84134)"
       spreadMethod="pad"
       id="linearGradient67"><stop
         style="stop-color:#fbe618;stop-opacity:1;"
         offset="0"
         id="stop64" /><stop
         style="stop-color:#f18b15;stop-opacity:1;"
         offset="0.292308"
         id="stop65" /><stop
         style="stop-color:#ffed34;stop-opacity:1;"
         offset="0.64049876"
         id="stop66" /><stop
         style="stop-color:#ef861b;stop-opacity:1;"
         offset="1"
         id="stop67" /></linearGradient><linearGradient
       x1="0"
       y1="0"
       x2="1"
       y2="0"
       gradientUnits="userSpaceOnUse"
       gradientTransform="matrix(-296.07918,-226.30077,234.7368,-285.4386,512.68517,905.90944)"
       spreadMethod="pad"
       id="linearGradient71"><stop
         style="stop-color:#fbe600;stop-opacity:1;"
         offset="0"
         id="stop68" /><stop
         style="stop-color:#f1af19;stop-opacity:1;"
         offset="0.292308"
         id="stop69" /><stop
         style="stop-color:#ffed15;stop-opacity:1;"
         offset="0.66666698"
         id="stop70" /><stop
         style="stop-opacity:1;stop-color:#efd04d"
         offset="1"
         id="stop71" /></linearGradient><clipPath
       clipPathUnits="userSpaceOnUse"
       id="clipPath73"><path
         d="M 0,500 H 500 V 0 H 0 Z"
         transform="translate(-196.4992,-282.9777)"
         id="path73" /></clipPath><clipPath
       clipPathUnits="userSpaceOnUse"
       id="clipPath75"><path
         d="M 0,500 H 500 V 0 H 0 Z"
         transform="translate(-202.45201,-282.9777)"
         id="path75" /></clipPath><clipPath
       clipPathUnits="userSpaceOnUse"
       id="clipPath77"><path
         d="M 0,500 H 500 V 0 H 0 Z"
         transform="translate(-206.43571,-275.3679)"
         id="path77" /></clipPath><clipPath
       clipPathUnits="userSpaceOnUse"
       id="clipPath79"><path
         d="M 0,500 H 500 V 0 H 0 Z"
         transform="translate(-212.35791,-282.9777)"
         id="path79" /></clipPath><clipPath
       clipPathUnits="userSpaceOnUse"
       id="clipPath81"><path
         d="M 0,500 H 500 V 0 H 0 Z"
         transform="translate(-194.6086,-262.1679)"
         id="path81" /></clipPath><clipPath
       clipPathUnits="userSpaceOnUse"
       id="clipPath83"><path
         d="M 0,500 H 500 V 0 H 0 Z"
         transform="translate(-200.53021,-269.7777)"
         id="path83" /></clipPath><clipPath
       clipPathUnits="userSpaceOnUse"
       id="clipPath85"><path
         d="M 0,500 H 500 V 0 H 0 Z"
         transform="translate(-206.48301,-269.7777)"
         id="path85" /></clipPath><clipPath
       clipPathUnits="userSpaceOnUse"
       id="clipPath87"><path
         d="M 0,500 H 500 V 0 H 0 Z"
         transform="translate(-210.46731,-262.1679)"
         id="path87" /></clipPath><clipPath
       clipPathUnits="userSpaceOnUse"
       id="clipPath89"><path
         d="M 0,500 H 500 V 0 H 0 Z"
         transform="translate(-239.4886,-336.46861)"
         id="path89" /></clipPath><clipPath
       clipPathUnits="userSpaceOnUse"
       id="clipPath91"><path
         d="M 0,500 H 500 V 0 H 0 Z"
         transform="translate(-245.44141,-336.46861)"
         id="path91" /></clipPath><clipPath
       clipPathUnits="userSpaceOnUse"
       id="clipPath93"><path
         d="M 0,500 H 500 V 0 H 0 Z"
         transform="translate(-249.42511,-328.85881)"
         id="path93" /></clipPath><clipPath
       clipPathUnits="userSpaceOnUse"
       id="clipPath95"><path
         d="M 0,500 H 500 V 0 H 0 Z"
         transform="translate(-255.34731,-336.46861)"
         id="path95" /></clipPath><clipPath
       clipPathUnits="userSpaceOnUse"
       id="clipPath97"><path
         d="M 0,500 H 500 V 0 H 0 Z"
         transform="translate(-237.598,-315.65881)"
         id="path97" /></clipPath><clipPath
       clipPathUnits="userSpaceOnUse"
       id="clipPath99"><path
         d="M 0,500 H 500 V 0 H 0 Z"
         transform="translate(-243.51961,-323.26861)"
         id="path99" /></clipPath><clipPath
       clipPathUnits="userSpaceOnUse"
       id="clipPath101"><path
         d="M 0,500 H 500 V 0 H 0 Z"
         transform="translate(-249.47241,-323.26861)"
         id="path101" /></clipPath><clipPath
       clipPathUnits="userSpaceOnUse"
       id="clipPath103"><path
         d="M 0,500 H 500 V 0 H 0 Z"
         transform="translate(-253.45671,-315.65881)"
         id="path103" /></clipPath><clipPath
       clipPathUnits="userSpaceOnUse"
       id="clipPath105"><path
         d="M 0,500 H 500 V 0 H 0 Z"
         transform="translate(-260.61231,-323.29221)"
         id="path105" /></clipPath><clipPath
       clipPathUnits="userSpaceOnUse"
       id="clipPath107"><path
         d="M 0,500 H 500 V 0 H 0 Z"
         transform="translate(-264.59661,-315.68241)"
         id="path107" /></clipPath><clipPath
       clipPathUnits="userSpaceOnUse"
       id="clipPath109"><path
         d="M 0,500 H 500 V 0 H 0 Z"
         transform="translate(-259.13581,-328.87011)"
         id="path109" /></clipPath><mask
       maskUnits="userSpaceOnUse"
       x="0"
       y="0"
       width="1"
       height="1"
       id="mask109"><path
         id="path110"
         d="M -32768,32767 H 32767 V -32768 H -32768 Z"
         style="fill:url(#linearGradient110);stroke:none" /></mask><linearGradient
       x1="0"
       y1="0"
       x2="1"
       y2="0"
       gradientUnits="userSpaceOnUse"
       gradientTransform="matrix(-14.4375,-14.849999,-14.849999,14.4375,215.24858,165.39537)"
       spreadMethod="pad"
       id="linearGradient110"><stop
         style="stop-opacity:0;stop-color:#ffffff"
         offset="0"
         id="stop109" /><stop
         style="stop-opacity:1;stop-color:#ffffff"
         offset="1"
         id="stop110" /></linearGradient><linearGradient
       x1="0"
       y1="0"
       x2="1"
       y2="0"
       gradientUnits="userSpaceOnUse"
       gradientTransform="matrix(-14.4375,-14.849999,-14.849999,14.4375,215.24858,165.39537)"
       spreadMethod="pad"
       id="linearGradient112"><stop
         style="stop-opacity:1;stop-color:#fbc938"
         offset="0"
         id="stop111" /><stop
         style="stop-opacity:1;stop-color:#ef954d"
         offset="1"
         id="stop112" /></linearGradient><clipPath
       clipPathUnits="userSpaceOnUse"
       id="clipPath113"><path
         d="m 201.536,147.587 h 19.245 l -19.245,27.203 z"
         transform="matrix(1.3333333,0,0,-1.3333333,0,666.66667)"
         id="path113" /></clipPath><clipPath
       clipPathUnits="userSpaceOnUse"
       id="clipPath115"><path
         d="M 0,500 H 500 V 0 H 0 Z"
         transform="translate(-342.27391,-165.1823)"
         id="path115" /></clipPath><linearGradient
       x1="0"
       y1="0"
       x2="1"
       y2="0"
       gradientUnits="userSpaceOnUse"
       gradientTransform="matrix(75.242499,0,0,72.538413,370.02951,959.6255)"
       spreadMethod="pad"
       id="linearGradient116"><stop
         style="stop-opacity:1;stop-color:#f1f2f2"
         offset="0"
         id="stop115" /><stop
         style="stop-opacity:1;stop-color:#bcbec0"
         offset="1"
         id="stop116" /></linearGradient><clipPath
       clipPathUnits="userSpaceOnUse"
       id="clipPath118"><path
         d="M 0,500 H 500 V 0 H 0 Z"
         transform="translate(-357.44641,-214.11801)"
         id="path118" /></clipPath><clipPath
       clipPathUnits="userSpaceOnUse"
       id="clipPath120"><path
         d="M 0,500 H 500 V 0 H 0 Z"
         transform="translate(-377.77091,-339.50131)"
         id="path120" /></clipPath><clipPath
       clipPathUnits="userSpaceOnUse"
       id="clipPath122"><path
         d="M 0,500 H 500 V 0 H 0 Z"
         transform="translate(-388.81611,-332.53991)"
         id="path122" /></clipPath><clipPath
       clipPathUnits="userSpaceOnUse"
       id="clipPath124"><path
         d="M 0,500 H 500 V 0 H 0 Z"
         transform="translate(-377.26821,-326.45501)"
         id="path124" /></clipPath><clipPath
       clipPathUnits="userSpaceOnUse"
       id="clipPath126"><path
         d="M 0,500 H 500 V 0 H 0 Z"
         transform="translate(-377.84081,-299.1558)"
         id="path126" /></clipPath><clipPath
       clipPathUnits="userSpaceOnUse"
       id="clipPath128"><path
         d="M 0,500 H 500 V 0 H 0 Z"
         transform="translate(-388.86121,-292.1541)"
         id="path128" /></clipPath><clipPath
       clipPathUnits="userSpaceOnUse"
       id="clipPath130"><path
         d="M 0,500 H 500 V 0 H 0 Z"
         transform="translate(-377.29081,-286.11051)"
         id="path130" /></clipPath><clipPath
       clipPathUnits="userSpaceOnUse"
       id="clipPath132"><path
         d="M 0,500 H 500 V 0 H 0 Z"
         transform="translate(-377.74301,-258.73401)"
         id="path132" /></clipPath><clipPath
       clipPathUnits="userSpaceOnUse"
       id="clipPath134"><path
         d="M 0,500 H 500 V 0 H 0 Z"
         transform="translate(-388.78921,-251.772)"
         id="path134" /></clipPath><clipPath
       clipPathUnits="userSpaceOnUse"
       id="clipPath136"><path
         d="M 0,500 H 500 V 0 H 0 Z"
         transform="translate(-377.24141,-245.68661)"
         id="path136" /></clipPath><clipPath
       clipPathUnits="userSpaceOnUse"
       id="clipPath138"><path
         d="M 0,500 H 500 V 0 H 0 Z"
         transform="translate(-423.71741,-313.07231)"
         id="path138" /></clipPath><clipPath
       clipPathUnits="userSpaceOnUse"
       id="clipPath140"><path
         d="M 0,500 H 500 V 0 H 0 Z"
         transform="translate(-412.73571,-306.00341)"
         id="path140" /></clipPath><clipPath
       clipPathUnits="userSpaceOnUse"
       id="clipPath142"><path
         d="M 0,500 H 500 V 0 H 0 Z"
         transform="translate(-412.10831,-319.04611)"
         id="path142" /></clipPath><clipPath
       clipPathUnits="userSpaceOnUse"
       id="clipPath144"><path
         d="M 0,500 H 500 V 0 H 0 Z"
         transform="translate(-353.86741,-272.52161)"
         id="path144" /></clipPath><clipPath
       clipPathUnits="userSpaceOnUse"
       id="clipPath146"><path
         d="M 0,500 H 500 V 0 H 0 Z"
         transform="translate(-342.88571,-265.45331)"
         id="path146" /></clipPath><clipPath
       clipPathUnits="userSpaceOnUse"
       id="clipPath148"><path
         d="M 0,500 H 500 V 0 H 0 Z"
         transform="translate(-342.25841,-278.4954)"
         id="path148" /></clipPath><clipPath
       clipPathUnits="userSpaceOnUse"
       id="clipPath150"><path
         d="M 0,500 H 500 V 0 H 0 Z"
         transform="translate(-342.40981,-320.10421)"
         id="path150" /></clipPath><clipPath
       clipPathUnits="userSpaceOnUse"
       id="clipPath152"><path
         d="M 0,500 H 500 V 0 H 0 Z"
         transform="translate(-342.87391,-307.05291)"
         id="path152" /></clipPath><clipPath
       clipPathUnits="userSpaceOnUse"
       id="clipPath154"><path
         d="M 0,500 H 500 V 0 H 0 Z"
         transform="translate(-353.94261,-313.98491)"
         id="path154" /></clipPath><clipPath
       clipPathUnits="userSpaceOnUse"
       id="clipPath156"><path
         d="M 0,500 H 500 V 0 H 0 Z"
         transform="translate(-412.34581,-277.20741)"
         id="path156" /></clipPath><clipPath
       clipPathUnits="userSpaceOnUse"
       id="clipPath158"><path
         d="M 0,500 H 500 V 0 H 0 Z"
         transform="translate(-412.80981,-264.15561)"
         id="path158" /></clipPath><clipPath
       clipPathUnits="userSpaceOnUse"
       id="clipPath160"><path
         d="M 0,500 H 500 V 0 H 0 Z"
         transform="translate(-423.87861,-271.08761)"
         id="path160" /></clipPath><clipPath
       clipPathUnits="userSpaceOnUse"
       id="clipPath162"><path
         d="M 0,500 H 500 V 0 H 0 Z"
         transform="translate(-411.69591,-276.85071)"
         id="path162" /></clipPath><clipPath
       clipPathUnits="userSpaceOnUse"
       id="clipPath164"><path
         d="M 0,500 H 500 V 0 H 0 Z"
         transform="translate(-376.87721,-298.82121)"
         id="path164" /></clipPath><clipPath
       clipPathUnits="userSpaceOnUse"
       id="clipPath166"><path
         d="M 0,500 H 500 V 0 H 0 Z"
         transform="translate(-388.31121,-305.28691)"
         id="path166" /></clipPath><clipPath
       clipPathUnits="userSpaceOnUse"
       id="clipPath168"><path
         d="M 0,500 H 500 V 0 H 0 Z"
         transform="translate(-388.18981,-264.9033)"
         id="path168" /></clipPath><clipPath
       clipPathUnits="userSpaceOnUse"
       id="clipPath170"><path
         d="M 0,500 H 500 V 0 H 0 Z"
         transform="translate(-364.84921,-278.4084)"
         id="path170" /></clipPath><clipPath
       clipPathUnits="userSpaceOnUse"
       id="clipPath172"><path
         d="M 0,500 H 500 V 0 H 0 Z"
         transform="translate(-399.88801,-298.60581)"
         id="path172" /></clipPath><clipPath
       clipPathUnits="userSpaceOnUse"
       id="clipPath174"><path
         d="M 0,500 H 500 V 0 H 0 Z"
         transform="translate(-160.3339,-153.9513)"
         id="path174" /></clipPath><linearGradient
       x1="0"
       y1="0"
       x2="1"
       y2="0"
       gradientUnits="userSpaceOnUse"
       gradientTransform="matrix(24.124283,0,0,23.257298,184.12532,991.51856)"
       spreadMethod="pad"
       id="linearGradient175"><stop
         style="stop-opacity:1;stop-color:#f1f2f2"
         offset="0"
         id="stop174" /><stop
         style="stop-opacity:1;stop-color:#bcbec0"
         offset="1"
         id="stop175" /></linearGradient><linearGradient
       x1="0"
       y1="0"
       x2="1"
       y2="0"
       gradientUnits="userSpaceOnUse"
       gradientTransform="matrix(70.200211,0,0,67.677336,161.08512,991.52444)"
       spreadMethod="pad"
       id="linearGradient177"><stop
         style="stop-opacity:1;stop-color:#f1f2f2"
         offset="0"
         id="stop176" /><stop
         style="stop-opacity:1;stop-color:#bcbec0"
         offset="1"
         id="stop177" /></linearGradient><mask
       maskUnits="userSpaceOnUse"
       x="0"
       y="0"
       width="1"
       height="1"
       id="mask177"><path
         id="path179"
         d="M -32768,32767 H 32767 V -32768 H -32768 Z"
         style="fill:url(#linearGradient179);stroke:none" /></mask><linearGradient
       x1="0"
       y1="0"
       x2="1"
       y2="0"
       gradientUnits="userSpaceOnUse"
       gradientTransform="matrix(14.506249,-9.624999,-9.624999,-14.506249,340.29697,179.98112)"
       spreadMethod="pad"
       id="linearGradient179"><stop
         style="stop-opacity:0;stop-color:#ffffff"
         offset="0"
         id="stop178" /><stop
         style="stop-opacity:1;stop-color:#ffffff"
         offset="1"
         id="stop179" /></linearGradient><linearGradient
       x1="0"
       y1="0"
       x2="1"
       y2="0"
       gradientUnits="userSpaceOnUse"
       gradientTransform="matrix(14.506249,-9.624999,-9.624999,-14.506249,340.29697,179.98112)"
       spreadMethod="pad"
       id="linearGradient181"><stop
         style="stop-opacity:1;stop-color:#f1f2f2"
         offset="0"
         id="stop180" /><stop
         style="stop-opacity:1;stop-color:#939598"
         offset="1"
         id="stop181" /></linearGradient><clipPath
       clipPathUnits="userSpaceOnUse"
       id="clipPath182"><path
         d="m 328.243,161.09 c 0,0 11.674,-4.719 23.83,-1.314 v 0 l 8.846,33.412 z"
         transform="matrix(1.3333333,0,0,-1.3333333,0,666.66667)"
         id="path182" /></clipPath><linearGradient
       x1="0"
       y1="0"
       x2="1"
       y2="0"
       gradientUnits="userSpaceOnUse"
       gradientTransform="matrix(70.200173,0,0,67.6773,416.77236,990.96858)"
       spreadMethod="pad"
       id="linearGradient183"><stop
         style="stop-opacity:1;stop-color:#f1f2f2"
         offset="0"
         id="stop182" /><stop
         style="stop-opacity:1;stop-color:#bcbec0"
         offset="1"
         id="stop183" /></linearGradient><clipPath
       clipPathUnits="userSpaceOnUse"
       id="clipPath185"><path
         d="M 0,500 H 500 V 0 H 0 Z"
         transform="translate(-390.47591,-165.58931)"
         id="path185" /></clipPath><linearGradient
       x1="0"
       y1="0"
       x2="1"
       y2="0"
       gradientUnits="userSpaceOnUse"
       gradientTransform="matrix(27.555095,0,0,26.564812,438.09498,994.92441)"
       spreadMethod="pad"
       id="linearGradient186"><stop
         style="stop-opacity:1;stop-color:#f1f2f2"
         offset="0"
         id="stop185" /><stop
         style="stop-opacity:1;stop-color:#bcbec0"
         offset="1"
         id="stop186" /></linearGradient><clipPath
       clipPathUnits="userSpaceOnUse"
       id="clipPath188"><path
         d="M 0,500 H 500 V 0 H 0 Z"
         transform="translate(-281.62501,-147.587)"
         id="path188" /></clipPath><clipPath
       clipPathUnits="userSpaceOnUse"
       id="clipPath190"><path
         d="M 0,500 H 500 V 0 H 0 Z"
         transform="translate(-285.54381,-147.587)"
         id="path190" /></clipPath><clipPath
       clipPathUnits="userSpaceOnUse"
       id="clipPath192"><path
         d="M 0,500 H 500 V 0 H 0 Z"
         transform="translate(-277.6375,-147.587)"
         id="path192" /></clipPath><clipPath
       clipPathUnits="userSpaceOnUse"
       id="clipPath194"><path
         d="M 0,500 H 500 V 0 H 0 Z"
         transform="translate(-291.93751,-202.50581)"
         id="path194" /></clipPath><clipPath
       clipPathUnits="userSpaceOnUse"
       id="clipPath196"><path
         d="M 0,500 H 500 V 0 H 0 Z"
         transform="translate(-264.0937,-186.34961)"
         id="path196" /></clipPath><clipPath
       clipPathUnits="userSpaceOnUse"
       id="clipPath198"><path
         d="M 0,500 H 500 V 0 H 0 Z"
         transform="translate(-277.6375,-164.96831)"
         id="path198" /></clipPath><clipPath
       clipPathUnits="userSpaceOnUse"
       id="clipPath200"><path
         d="M 0,500 H 500 V 0 H 0 Z"
         transform="translate(-187.49991,-202.3683)"
         id="path200" /></clipPath><clipPath
       clipPathUnits="userSpaceOnUse"
       id="clipPath202"><path
         d="M 0,500 H 500 V 0 H 0 Z"
         transform="translate(-187.49991,-197.55581)"
         id="path202" /></clipPath><clipPath
       clipPathUnits="userSpaceOnUse"
       id="clipPath204"><path
         d="M 0,500 H 500 V 0 H 0 Z"
         transform="translate(-187.49991,-190.6808)"
         id="path204" /></clipPath><clipPath
       clipPathUnits="userSpaceOnUse"
       id="clipPath206"><path
         d="M 0,500 H 500 V 0 H 0 Z"
         transform="translate(-248.07501,-294.20601)"
         id="path206" /></clipPath><clipPath
       clipPathUnits="userSpaceOnUse"
       id="clipPath208"><path
         d="M 0,500 H 500 V 0 H 0 Z"
         transform="translate(-248.07501,-266.44331)"
         id="path208" /></clipPath><clipPath
       clipPathUnits="userSpaceOnUse"
       id="clipPath210"><path
         d="M 0,500 H 500 V 0 H 0 Z"
         transform="translate(-243.12501,-255.882)"
         id="path210" /></clipPath><clipPath
       clipPathUnits="userSpaceOnUse"
       id="clipPath212"><path
         d="M 0,500 H 500 V 0 H 0 Z"
         transform="translate(-242.94171,-270.4767)"
         id="path212" /></clipPath><clipPath
       clipPathUnits="userSpaceOnUse"
       id="clipPath214"><path
         d="M 0,500 H 500 V 0 H 0 Z"
         transform="translate(-254.49171,-281.7516)"
         id="path214" /></clipPath><clipPath
       clipPathUnits="userSpaceOnUse"
       id="clipPath216"><path
         d="M 0,500 H 500 V 0 H 0 Z"
         transform="translate(-210.76671,-194.76)"
         id="path216" /></clipPath><clipPath
       clipPathUnits="userSpaceOnUse"
       id="clipPath218"><path
         d="M 0,500 H 500 V 0 H 0 Z"
         transform="translate(-194.63331,-236.92661)"
         id="path218" /></clipPath><clipPath
       clipPathUnits="userSpaceOnUse"
       id="clipPath220"><path
         d="M 0,500 H 500 V 0 H 0 Z"
         transform="translate(-200.6833,-187.61)"
         id="path220" /></clipPath><clipPath
       clipPathUnits="userSpaceOnUse"
       id="clipPath222"><path
         d="M 0,500 H 500 V 0 H 0 Z"
         transform="translate(-287.5375,-395.74691)"
         id="path222" /></clipPath><clipPath
       clipPathUnits="userSpaceOnUse"
       id="clipPath224"><path
         d="M 0,500 H 500 V 0 H 0 Z"
         transform="translate(-283.45831,-395.74691)"
         id="path224" /></clipPath><clipPath
       clipPathUnits="userSpaceOnUse"
       id="clipPath226"><path
         d="M 0,500 H 500 V 0 H 0 Z"
         transform="translate(-293.0833,-395.74691)"
         id="path226" /></clipPath><clipPath
       clipPathUnits="userSpaceOnUse"
       id="clipPath228"><path
         d="M 0,500 H 500 V 0 H 0 Z"
         transform="translate(-276.95001,-395.74691)"
         id="path228" /></clipPath><clipPath
       clipPathUnits="userSpaceOnUse"
       id="clipPath230"><path
         d="M 0,500 H 500 V 0 H 0 Z"
         transform="translate(-283.09171,-350.13501)"
         id="path230" /></clipPath><clipPath
       clipPathUnits="userSpaceOnUse"
       id="clipPath232"><path
         d="M 0,500 H 500 V 0 H 0 Z"
         transform="translate(-293.26671,-372.50161)"
         id="path232" /></clipPath><clipPath
       clipPathUnits="userSpaceOnUse"
       id="clipPath234"><path
         d="M 0,500 H 500 V 0 H 0 Z"
         transform="translate(-295.375,-337.02661)"
         id="path234" /></clipPath></defs><g
     id="layer-MC1"
     transform="matrix(0.26458333,0,0,0.26458334,-21.454259,-189.58605)"><path
       id="path19"
       d="m 168.8133,983.07561 h 34.23573 V 951.42504 H 168.8133 Z"
       style="fill:url(#linearGradient19);stroke:none;stroke-width:1.09509" /><path
       id="path21"
       d="m 115.65399,1014.7262 h 34.23463 v -31.65059 h -34.23463 z"
       style="fill:url(#linearGradient21);stroke:none;stroke-width:1.09509" /><path
       id="path23"
       d="m 474.11539,1011.7219 h 34.23462 v -31.65055 h -34.23462 z"
       style="fill:url(#linearGradient23);stroke:none;stroke-width:1.09509" /><path
       id="path27"
       d="M 134.57867,983.07561 H 168.8133 V 951.42504 H 134.57867 Z"
       style="fill:url(#linearGradient27);stroke:none;stroke-width:1.09509" /><path
       id="path31"
       d="m 184.12547,1014.7262 h 34.23462 v -31.65059 h -34.23462 z"
       style="fill:url(#linearGradient31);stroke:none;stroke-width:1.09509" /><path
       id="path35"
       d="m 476.07724,948.2649 h 34.23573 v -31.65057 h -34.23573 z"
       style="fill:url(#linearGradient35);stroke:none;stroke-width:1.09509" /><path
       id="path37"
       d="m 218.36009,1014.7262 h 34.23462 v -31.65059 h -34.23462 z"
       style="fill:url(#linearGradient37);stroke:none;stroke-width:1.09509" /><path
       id="path39"
       d="m 149.88862,1014.7262 h 34.23573 v -31.65059 h -34.23573 z"
       style="fill:url(#linearGradient39);stroke:none;stroke-width:1.09509" /><path
       id="path41"
       d="M 81.087011,1014.7262 H 115.32163 V 983.07561 H 81.087011 Z"
       style="fill:url(#linearGradient41);stroke:none;stroke-width:1.09509" /><path
       id="path43"
       d="m 149.90311,951.42504 h 34.23463 v -31.6506 h -34.23463 z"
       style="fill:url(#linearGradient43);stroke:none;stroke-width:1.09509" /><path
       id="path45"
       d="m 485.89313,979.99289 h 34.23462 v -31.65057 h -34.23462 z"
       style="fill:url(#linearGradient45);stroke:none;stroke-width:1.09509" /><path
       id="path47"
       d="m 200.32878,737.72884 c -6.92946,0 -13.22988,2.72572 -17.78371,7.13417 v 0 c -4.5728,4.39018 -7.40013,10.46524 -7.40013,17.14567 v 0 h -11.62047 c -5.00554,0 -9.54041,1.96767 -12.81833,5.14714 v 0 c -3.29798,3.16119 -5.33901,7.53201 -5.33901,12.35659 v 0 c 0,9.63301 8.16523,17.50479 18.15734,17.50479 v 0 h 104.68466 c 4.98546,0 9.53818,-1.9666 12.81721,-5.14714 v 0 c 3.29799,-3.16011 5.33901,-7.53093 5.33901,-12.35765 v 0 c 0,-9.63087 -8.16633,-17.50373 -18.15622,-17.50373 v 0 h -19.45334 c 0,-13.36084 -11.34611,-24.27984 -25.20391,-24.27984 v 0 z"
       style="fill:#ffffff;fill-opacity:1;stroke:none;stroke-width:1.09509" /><path
       id="path49"
       d="m 141.4033,748.9532 c -2.03769,0 -3.70508,1.60747 -3.70508,3.57192 v 0 0.71396 c 0,1.96445 1.66739,3.57085 3.70508,3.57085 v 0 h 49.94496 c 2.03768,0 3.70396,-1.6064 3.70396,-3.57085 v 0 -0.71396 c 0,-1.96445 -1.66628,-3.57192 -3.70396,-3.57192 v 0 z"
       style="fill:#ffffff;fill-opacity:1;stroke:none;stroke-width:1.09509" /><path
       id="path51"
       d="m 139.26747,764.79031 c -1.50568,0 -2.73699,1.18706 -2.73699,2.63862 v 0 0.52794 c 0,1.45156 1.23131,2.63862 2.73699,2.63862 v 0 h 30.87752 c 1.50456,0 2.73698,-1.18706 2.73698,-2.63862 v 0 -0.52794 c 0,-1.45156 -1.23242,-2.63862 -2.73698,-2.63862 v 0 z"
       style="fill:#ffffff;fill-opacity:1;stroke:none;stroke-width:1.09509" /><path
       id="path53"
       d="m 162.14259,802.65465 c -1.76554,0 -3.20988,1.39135 -3.20988,3.09237 v 0 0.61934 c 0,1.70209 1.44434,3.09345 3.20988,3.09345 v 0 h 46.08932 c 1.76442,0 3.20876,-1.39136 3.20876,-3.09345 v 0 -0.61934 c 0,-1.70102 -1.44434,-3.09237 -3.20876,-3.09237 v 0 z"
       style="fill:#ffffff;fill-opacity:1;stroke:none;stroke-width:1.09509" /><path
       id="path55"
       d="m 410.98294,719.81976 c -5.19179,0 -9.92185,2.04401 -13.34699,5.34605 v 0 c -3.42625,3.30205 -5.54646,7.86319 -5.54646,12.86839 v 0 c 0,0.17957 0,0.35914 0.0201,0.53978 v 0 c -12.93543,2.51711 -22.76026,13.59631 -22.76026,26.7776 v 0 0.01 2.344 c 0,3.73214 3.1385,6.75785 7.00976,6.75785 v 0 H 490.9734 c 5.19291,0 9.92408,-2.05369 13.34809,-5.34606 v 0 c 3.47086,-3.34613 5.60112,-7.97286 5.54424,-13.06624 v 0 C 509.7542,745.98878 500.91086,738.0342 490.47262,738.0342 v 0 h -24.93846 c 0,-10.02009 -8.49983,-18.21444 -18.89346,-18.21444 v 0 z"
       style="fill:#ffffff;fill-opacity:1;stroke:none;stroke-width:1.09509" /><path
       id="path57"
       d="m 462.22501,777.61354 c -1.76443,0 -3.20876,1.39135 -3.20876,3.09238 v 0 0.61933 c 0,1.70102 1.44433,3.09345 3.20876,3.09345 v 0 h 46.09043 c 1.76443,0 3.20877,-1.39243 3.20877,-3.09345 v 0 -0.61933 c 0,-1.70103 -1.44434,-3.09238 -3.20877,-3.09238 v 0 z"
       style="fill:#ffffff;fill-opacity:1;stroke:none;stroke-width:1.09509" /><path
       id="path59"
       d="m 485.418,751.35742 c -1.68635,0 -3.06711,1.33007 -3.06711,2.95582 v 0 0.59137 c 0,1.62683 1.38076,2.95797 3.06711,2.95797 v 0 h 33.73943 c 1.68635,0 3.066,-1.33114 3.066,-2.95797 v 0 -0.59137 c 0,-1.62575 -1.37965,-2.95582 -3.066,-2.95582 v 0 z"
       style="fill:#ffffff;fill-opacity:1;stroke:none;stroke-width:1.09509" /><path
       id="path61"
       d="m 503.69246,760.39153 c -1.40976,0 -2.56411,1.11287 -2.56411,2.47411 v 0 0.49461 c 0,1.3591 1.15435,2.47196 2.56411,2.47196 v 0 h 14.06971 c 1.41087,0 2.56522,-1.11286 2.56522,-2.47196 v 0 -0.49461 c 0,-1.36124 -1.15435,-2.47411 -2.56522,-2.47411 v 0 z"
       style="fill:#ffffff;fill-opacity:1;stroke:none;stroke-width:1.09509" /><path
       id="path63"
       d="m 220.75021,791.87221 h 30.34663 v -29.25495 h -30.34663 z"
       style="fill:url(#linearGradient63);stroke:none;stroke-width:1.09509" /><path
       id="path67"
       d="m 325.84642,747.98979 v 29.7345 c -5.07914,-0.29569 -10.36685,-0.48493 -15.96128,-0.48493 v 0 h -38.74385 v 29.2614 h -20.45154 v 29.24957 h -15.65458 v 29.16678 h 35.66446 v 29.2614 h -35.66446 v 91.39161 h 15.65458 v 29.24958 h 35.66445 v -29.24958 h 32.24156 c 2.49049,0 4.87058,-0.0946 7.25066,-0.20104 v 0 29.45062 h 35.56631 v -36.33426 c 6.31827,-2.3892 11.92495,-5.44071 17.0041,-9.17825 v 0 c 14.61175,-10.89319 21.97284,-25.80773 21.97284,-44.73184 v 0 c 0,-12.72646 -3.00577,-23.05192 -9.01733,-31.08284 v 0 c -6.01155,-7.92447 -15.65457,-13.66084 -28.92906,-17.10266 v 0 -1.44296 c 10.06015,-2.29455 18.2421,-7.64061 24.36519,-15.96722 v 0 c 6.22011,-8.22015 9.22478,-18.15531 9.22478,-29.92374 v 0 c 0,-17.68221 -7.05326,-30.77533 -21.14974,-39.19656 v 0 c -3.93818,-2.29454 -8.39164,-4.29341 -13.47078,-6.02023 v 0 -35.84935 z m -39.49222,58.51097 h 35.66446 v 14.59522 c 1.37407,0.33117 2.64999,0.72148 3.82776,1.17093 v 0 c 7.15253,2.68485 10.78287,7.74706 10.78287,15.11563 v 0 c 0,6.49333 -2.28081,11.47274 -6.83241,14.81994 v 0 c -1.25139,0.85158 -2.49162,1.62038 -3.95046,2.29455 v 0 c -4.14674,1.80962 -9.22589,2.67302 -15.33559,2.67302 v 0 h -17.51938 v -21.41972 h -6.63725 z m 6.63725,91.87654 h 19.27377 c 5.18957,0 9.75344,0.56772 13.5812,1.80962 v 0 c 2.90763,0.8634 5.39813,2.1053 7.47039,3.7375 v 0 c 4.87169,3.72569 7.25178,8.97712 7.25178,15.95539 v 0 c 0,10.90502 -4.87058,17.88329 -14.72217,20.65094 v 0 c -3.52105,1.05265 -7.6678,1.6322 -12.44023,1.6322 v 0 h -20.41474 z"
       style="fill:url(#linearGradient67);stroke:none;stroke-width:1.09509;stroke-opacity:1" /><path
       id="path71"
       d="m 268.89728,745.80062 h 30.34663 v -29.25495 h -30.34663 z"
       style="fill:url(#linearGradient71);stroke:none;stroke-width:1.09509" /><path
       id="path72"
       d="M 0,0 C 0,0.234 -0.083,0.434 -0.25,0.602 -0.417,0.768 -0.617,0.851 -0.851,0.851 -1.086,0.851 -1.285,0.768 -1.449,0.602 -1.613,0.434 -1.695,0.234 -1.695,0 v -5.352 c 0,-0.234 0.082,-0.435 0.246,-0.601 0.164,-0.167 0.363,-0.251 0.598,-0.251 0.234,0 0.434,0.084 0.601,0.251 0.167,0.166 0.25,0.367 0.25,0.601 z m 1.531,-5.375 c 0,-0.651 -0.229,-1.204 -0.687,-1.657 -0.458,-0.453 -1.008,-0.68 -1.649,-0.68 -0.651,0 -1.204,0.229 -1.66,0.684 -0.455,0.456 -0.684,1.007 -0.684,1.653 v 5.344 c 0,0.651 0.23,1.204 0.688,1.66 0.459,0.455 1.011,0.683 1.656,0.683 0.651,0 1.204,-0.229 1.657,-0.688 0.453,-0.457 0.679,-1.01 0.679,-1.655 z"
       style="fill:#ffffff;fill-opacity:1;fill-rule:nonzero;stroke:none"
       transform="matrix(1.1153158,0,0,-1.0752333,245.07213,869.24309)"
       clip-path="url(#clipPath73)" /><path
       id="path74"
       d="M 0,0 C 0,0.234 -0.083,0.434 -0.25,0.602 -0.417,0.768 -0.617,0.851 -0.851,0.851 -1.086,0.851 -1.285,0.768 -1.449,0.602 -1.613,0.434 -1.695,0.234 -1.695,0 v -5.352 c 0,-0.234 0.082,-0.435 0.246,-0.601 0.164,-0.167 0.363,-0.251 0.598,-0.251 0.234,0 0.434,0.084 0.601,0.251 0.167,0.166 0.25,0.367 0.25,0.601 z m 1.531,-5.375 c 0,-0.651 -0.229,-1.204 -0.687,-1.657 -0.458,-0.453 -1.008,-0.68 -1.649,-0.68 -0.651,0 -1.204,0.229 -1.66,0.684 -0.455,0.456 -0.684,1.007 -0.684,1.653 v 5.344 c 0,0.651 0.23,1.204 0.688,1.66 0.459,0.455 1.011,0.683 1.656,0.683 0.651,0 1.204,-0.229 1.657,-0.688 0.453,-0.457 0.679,-1.01 0.679,-1.655 z"
       style="fill:#ffffff;fill-opacity:1;fill-rule:nonzero;stroke:none"
       transform="matrix(1.1153158,0,0,-1.0752333,251.71138,869.24309)"
       clip-path="url(#clipPath75)" /><path
       id="path76"
       d="M 0,0 V 7.539 H -1.258 V 8.57 c 0.355,0.042 0.692,0.176 1.012,0.403 0.32,0.227 0.551,0.501 0.691,0.824 H 1.477 V 0 Z"
       style="fill:#ffffff;fill-opacity:1;fill-rule:nonzero;stroke:none"
       transform="matrix(1.1153158,0,0,-1.0752333,256.15447,877.4254)"
       clip-path="url(#clipPath77)" /><path
       id="path78"
       d="M 0,0 C 0,0.234 -0.083,0.434 -0.25,0.602 -0.417,0.768 -0.617,0.851 -0.851,0.851 -1.086,0.851 -1.285,0.768 -1.449,0.602 -1.613,0.434 -1.695,0.234 -1.695,0 v -5.352 c 0,-0.234 0.082,-0.435 0.246,-0.601 0.164,-0.167 0.363,-0.251 0.598,-0.251 0.234,0 0.434,0.084 0.601,0.251 0.167,0.166 0.25,0.367 0.25,0.601 z m 1.531,-5.375 c 0,-0.651 -0.229,-1.204 -0.687,-1.657 -0.458,-0.453 -1.008,-0.68 -1.649,-0.68 -0.651,0 -1.204,0.229 -1.66,0.684 -0.455,0.456 -0.684,1.007 -0.684,1.653 v 5.344 c 0,0.651 0.23,1.204 0.688,1.66 0.459,0.455 1.011,0.683 1.656,0.683 0.651,0 1.204,-0.229 1.657,-0.688 0.453,-0.457 0.679,-1.01 0.679,-1.655 z"
       style="fill:#ffffff;fill-opacity:1;fill-rule:nonzero;stroke:none"
       transform="matrix(1.1153158,0,0,-1.0752333,262.75959,869.24309)"
       clip-path="url(#clipPath79)" /><path
       id="path80"
       d="M 0,0 V 7.539 H -1.258 V 8.57 c 0.355,0.042 0.692,0.176 1.012,0.403 0.32,0.227 0.551,0.501 0.691,0.824 H 1.477 V 0 Z"
       style="fill:#ffffff;fill-opacity:1;fill-rule:nonzero;stroke:none"
       transform="matrix(1.1153158,0,0,-1.0752333,242.96351,891.61848)"
       clip-path="url(#clipPath81)" /><path
       id="path82"
       d="M 0,0 C 0,0.234 -0.083,0.434 -0.25,0.602 -0.417,0.768 -0.617,0.851 -0.851,0.851 -1.086,0.851 -1.285,0.768 -1.449,0.602 -1.613,0.434 -1.695,0.234 -1.695,0 v -5.352 c 0,-0.234 0.082,-0.435 0.246,-0.601 0.164,-0.167 0.363,-0.251 0.598,-0.251 0.234,0 0.434,0.084 0.601,0.251 0.167,0.166 0.25,0.367 0.25,0.601 z m 1.531,-5.375 c 0,-0.651 -0.229,-1.204 -0.687,-1.657 -0.458,-0.453 -1.008,-0.68 -1.649,-0.68 -0.651,0 -1.204,0.229 -1.66,0.684 -0.455,0.456 -0.684,1.007 -0.684,1.653 v 5.344 c 0,0.651 0.23,1.204 0.688,1.66 0.459,0.455 1.011,0.683 1.656,0.683 0.651,0 1.204,-0.229 1.657,-0.688 0.453,-0.457 0.679,-1.01 0.679,-1.655 z"
       style="fill:#ffffff;fill-opacity:1;fill-rule:nonzero;stroke:none"
       transform="matrix(1.1153158,0,0,-1.0752333,249.56797,883.43617)"
       clip-path="url(#clipPath83)" /><path
       id="path84"
       d="M 0,0 C 0,0.234 -0.083,0.434 -0.25,0.602 -0.417,0.768 -0.617,0.851 -0.851,0.851 -1.086,0.851 -1.285,0.768 -1.449,0.602 -1.613,0.434 -1.695,0.234 -1.695,0 v -5.352 c 0,-0.234 0.082,-0.435 0.246,-0.601 0.164,-0.167 0.363,-0.251 0.598,-0.251 0.234,0 0.434,0.084 0.601,0.251 0.167,0.166 0.25,0.367 0.25,0.601 z m 1.531,-5.375 c 0,-0.651 -0.229,-1.204 -0.687,-1.657 -0.458,-0.453 -1.008,-0.68 -1.649,-0.68 -0.651,0 -1.204,0.229 -1.66,0.684 -0.455,0.456 -0.684,1.007 -0.684,1.653 v 5.344 c 0,0.651 0.23,1.204 0.688,1.66 0.459,0.455 1.011,0.683 1.656,0.683 0.651,0 1.204,-0.229 1.657,-0.688 0.453,-0.457 0.679,-1.01 0.679,-1.655 z"
       style="fill:#ffffff;fill-opacity:1;fill-rule:nonzero;stroke:none"
       transform="matrix(1.1153158,0,0,-1.0752333,256.20722,883.43617)"
       clip-path="url(#clipPath85)" /><path
       id="path86"
       d="M 0,0 V 7.539 H -1.258 V 8.57 c 0.355,0.042 0.692,0.176 1.012,0.403 0.32,0.227 0.551,0.501 0.691,0.824 H 1.477 V 0 Z"
       style="fill:#ffffff;fill-opacity:1;fill-rule:nonzero;stroke:none"
       transform="matrix(1.1153158,0,0,-1.0752333,260.65098,891.61848)"
       clip-path="url(#clipPath87)" /><path
       id="path88"
       d="M 0,0 C 0,0.234 -0.083,0.434 -0.25,0.602 -0.417,0.768 -0.617,0.851 -0.851,0.851 -1.086,0.851 -1.285,0.768 -1.449,0.602 -1.613,0.434 -1.695,0.234 -1.695,0 v -5.352 c 0,-0.234 0.082,-0.435 0.246,-0.601 0.164,-0.167 0.363,-0.251 0.598,-0.251 0.234,0 0.434,0.084 0.601,0.251 0.167,0.166 0.25,0.367 0.25,0.601 z m 1.531,-5.375 c 0,-0.651 -0.229,-1.204 -0.687,-1.657 -0.458,-0.453 -1.008,-0.68 -1.649,-0.68 -0.651,0 -1.204,0.229 -1.66,0.684 -0.455,0.456 -0.684,1.007 -0.684,1.653 v 5.344 c 0,0.651 0.23,1.204 0.688,1.66 0.459,0.455 1.011,0.683 1.656,0.683 0.651,0 1.204,-0.229 1.657,-0.688 0.453,-0.457 0.679,-1.01 0.679,-1.655 z"
       style="fill:#ffffff;fill-opacity:1;fill-rule:nonzero;stroke:none"
       transform="matrix(1.1153158,0,0,-1.0752333,293.01889,811.72789)"
       clip-path="url(#clipPath89)" /><path
       id="path90"
       d="M 0,0 C 0,0.234 -0.083,0.434 -0.25,0.602 -0.417,0.768 -0.617,0.851 -0.851,0.851 -1.086,0.851 -1.285,0.768 -1.449,0.602 -1.613,0.434 -1.695,0.234 -1.695,0 v -5.352 c 0,-0.234 0.082,-0.435 0.246,-0.601 0.164,-0.167 0.363,-0.251 0.598,-0.251 0.234,0 0.434,0.084 0.601,0.251 0.167,0.166 0.25,0.367 0.25,0.601 z m 1.531,-5.375 c 0,-0.651 -0.229,-1.204 -0.687,-1.657 -0.458,-0.453 -1.008,-0.68 -1.649,-0.68 -0.651,0 -1.204,0.229 -1.66,0.684 -0.455,0.456 -0.684,1.007 -0.684,1.653 v 5.344 c 0,0.651 0.23,1.204 0.688,1.66 0.459,0.455 1.011,0.683 1.656,0.683 0.651,0 1.204,-0.229 1.657,-0.688 0.453,-0.457 0.679,-1.01 0.679,-1.655 z"
       style="fill:#ffffff;fill-opacity:1;fill-rule:nonzero;stroke:none"
       transform="matrix(1.1153158,0,0,-1.0752333,299.65814,811.72789)"
       clip-path="url(#clipPath91)" /><path
       id="path92"
       d="M 0,0 V 7.539 H -1.258 V 8.57 c 0.355,0.042 0.692,0.176 1.012,0.403 0.32,0.227 0.551,0.501 0.691,0.824 H 1.477 V 0 Z"
       style="fill:#ffffff;fill-opacity:1;fill-rule:nonzero;stroke:none"
       transform="matrix(1.1153158,0,0,-1.0752333,304.10123,819.9102)"
       clip-path="url(#clipPath93)" /><path
       id="path94"
       d="M 0,0 C 0,0.234 -0.083,0.434 -0.25,0.602 -0.417,0.768 -0.617,0.851 -0.851,0.851 -1.086,0.851 -1.285,0.768 -1.449,0.602 -1.613,0.434 -1.695,0.234 -1.695,0 v -5.352 c 0,-0.234 0.082,-0.435 0.246,-0.601 0.164,-0.167 0.363,-0.251 0.598,-0.251 0.234,0 0.434,0.084 0.601,0.251 0.167,0.166 0.25,0.367 0.25,0.601 z m 1.531,-5.375 c 0,-0.651 -0.229,-1.204 -0.687,-1.657 -0.458,-0.453 -1.008,-0.68 -1.649,-0.68 -0.651,0 -1.204,0.229 -1.66,0.684 -0.455,0.456 -0.684,1.007 -0.684,1.653 v 5.344 c 0,0.651 0.23,1.204 0.688,1.66 0.459,0.455 1.011,0.683 1.656,0.683 0.651,0 1.204,-0.229 1.657,-0.688 0.453,-0.457 0.679,-1.01 0.679,-1.655 z"
       style="fill:#ffffff;fill-opacity:1;fill-rule:nonzero;stroke:none"
       transform="matrix(1.1153158,0,0,-1.0752333,310.70635,811.72789)"
       clip-path="url(#clipPath95)" /><path
       id="path96"
       d="M 0,0 V 7.539 H -1.258 V 8.57 c 0.355,0.042 0.692,0.176 1.012,0.403 0.32,0.227 0.551,0.501 0.691,0.824 H 1.477 V 0 Z"
       style="fill:#ffffff;fill-opacity:1;fill-rule:nonzero;stroke:none"
       transform="matrix(1.1153158,0,0,-1.0752333,290.91027,834.10328)"
       clip-path="url(#clipPath97)" /><path
       id="path98"
       d="M 0,0 C 0,0.234 -0.083,0.434 -0.25,0.602 -0.417,0.768 -0.617,0.851 -0.851,0.851 -1.086,0.851 -1.285,0.768 -1.449,0.602 -1.613,0.434 -1.695,0.234 -1.695,0 v -5.352 c 0,-0.234 0.082,-0.435 0.246,-0.601 0.164,-0.167 0.363,-0.251 0.598,-0.251 0.234,0 0.434,0.084 0.601,0.251 0.167,0.166 0.25,0.367 0.25,0.601 z m 1.531,-5.375 c 0,-0.651 -0.229,-1.204 -0.687,-1.657 -0.458,-0.453 -1.008,-0.68 -1.649,-0.68 -0.651,0 -1.204,0.229 -1.66,0.684 -0.455,0.456 -0.684,1.007 -0.684,1.653 v 5.344 c 0,0.651 0.23,1.204 0.688,1.66 0.459,0.455 1.011,0.683 1.656,0.683 0.651,0 1.204,-0.229 1.657,-0.688 0.453,-0.457 0.679,-1.01 0.679,-1.655 z"
       style="fill:#ffffff;fill-opacity:1;fill-rule:nonzero;stroke:none"
       transform="matrix(1.1153158,0,0,-1.0752333,297.51473,825.92097)"
       clip-path="url(#clipPath99)" /><path
       id="path100"
       d="M 0,0 C 0,0.234 -0.083,0.434 -0.25,0.602 -0.417,0.768 -0.617,0.851 -0.851,0.851 -1.086,0.851 -1.285,0.768 -1.449,0.602 -1.613,0.434 -1.695,0.234 -1.695,0 v -5.352 c 0,-0.234 0.082,-0.435 0.246,-0.601 0.164,-0.167 0.363,-0.251 0.598,-0.251 0.234,0 0.434,0.084 0.601,0.251 0.167,0.166 0.25,0.367 0.25,0.601 z m 1.531,-5.375 c 0,-0.651 -0.229,-1.204 -0.687,-1.657 -0.458,-0.453 -1.008,-0.68 -1.649,-0.68 -0.651,0 -1.204,0.229 -1.66,0.684 -0.455,0.456 -0.684,1.007 -0.684,1.653 v 5.344 c 0,0.651 0.23,1.204 0.688,1.66 0.459,0.455 1.011,0.683 1.656,0.683 0.651,0 1.204,-0.229 1.657,-0.688 0.453,-0.457 0.679,-1.01 0.679,-1.655 z"
       style="fill:#ffffff;fill-opacity:1;fill-rule:nonzero;stroke:none"
       transform="matrix(1.1153158,0,0,-1.0752333,304.15398,825.92097)"
       clip-path="url(#clipPath101)" /><path
       id="path102"
       d="M 0,0 V 7.539 H -1.258 V 8.57 c 0.355,0.042 0.692,0.176 1.012,0.403 0.32,0.227 0.551,0.501 0.691,0.824 H 1.477 V 0 Z"
       style="fill:#ffffff;fill-opacity:1;fill-rule:nonzero;stroke:none"
       transform="matrix(1.1153158,0,0,-1.0752333,308.59774,834.10328)"
       clip-path="url(#clipPath103)" /><path
       id="path104"
       d="M 0,0 C 0,0.234 -0.083,0.434 -0.25,0.602 -0.417,0.768 -0.617,0.851 -0.851,0.851 -1.086,0.851 -1.285,0.768 -1.449,0.602 -1.613,0.434 -1.695,0.234 -1.695,0 v -5.352 c 0,-0.234 0.082,-0.435 0.246,-0.601 0.164,-0.167 0.363,-0.251 0.598,-0.251 0.234,0 0.434,0.084 0.601,0.251 0.167,0.166 0.25,0.367 0.25,0.601 z m 1.531,-5.375 c 0,-0.651 -0.229,-1.203 -0.687,-1.657 -0.458,-0.453 -1.008,-0.68 -1.649,-0.68 -0.651,0 -1.204,0.229 -1.66,0.684 -0.455,0.456 -0.684,1.007 -0.684,1.653 v 5.344 c 0,0.651 0.23,1.204 0.688,1.66 0.459,0.455 1.011,0.683 1.656,0.683 0.651,0 1.204,-0.229 1.657,-0.688 0.453,-0.457 0.679,-1.01 0.679,-1.655 z"
       style="fill:#ffffff;fill-opacity:1;fill-rule:nonzero;stroke:none"
       transform="matrix(1.1153158,0,0,-1.0752333,316.57849,825.89559)"
       clip-path="url(#clipPath105)" /><path
       id="path106"
       d="M 0,0 V 7.539 H -1.258 V 8.57 c 0.355,0.042 0.692,0.176 1.012,0.403 0.32,0.227 0.551,0.501 0.691,0.824 H 1.477 V 0 Z"
       style="fill:#ffffff;fill-opacity:1;fill-rule:nonzero;stroke:none"
       transform="matrix(1.1153158,0,0,-1.0752333,321.02224,834.0779)"
       clip-path="url(#clipPath107)" /><path
       id="path108"
       d="M 0,0 V 7.539 H -1.258 V 8.57 c 0.355,0.042 0.692,0.176 1.012,0.403 0.32,0.227 0.551,0.501 0.691,0.824 H 1.477 V 0 Z"
       style="fill:#ffffff;fill-opacity:1;fill-rule:nonzero;stroke:none"
       transform="matrix(1.1153158,0,0,-1.0752333,314.93173,819.89805)"
       clip-path="url(#clipPath109)" /><g
       mask="url(#mask109)"
       id="g112"
       clip-path="url(#clipPath113)"
       transform="matrix(0.8364869,0,0,0.806425,25.913452,635.89348)"><path
         d="m 201.536,147.587 h 19.245 l -19.245,27.203 z"
         transform="matrix(1.3333333,0,0,-1.3333333,0,666.66667)"
         style="fill:url(#linearGradient112);stroke:none"
         id="path112" /></g><path
       id="path114"
       d="m 0,0 c -18.601,0 -33.737,15.136 -33.737,33.737 0,18.601 15.136,33.737 33.737,33.737 18.601,0 33.726,-15.136 33.726,-33.737 C 33.726,15.136 18.601,0 0,0 m 0,74.085 c -22.253,0 -40.348,-18.095 -40.348,-40.348 0,-22.242 18.095,-40.348 40.348,-40.348 22.242,0 40.348,18.106 40.348,40.348 C 40.348,55.99 22.242,74.085 0,74.085"
       style="fill:#8c8c8c;fill-opacity:1;fill-rule:nonzero;stroke:none"
       transform="matrix(1.1153158,0,0,-1.0752333,407.65697,995.90067)"
       clip-path="url(#clipPath115)" /><path
       id="path116"
       d="m 370.02966,959.62582 c 0,19.99934 16.88142,36.27517 37.62741,36.27517 v 0 c 20.74599,0 37.61514,-16.27583 37.61514,-36.27517 v 0 c 0,-20.00042 -16.86915,-36.27515 -37.61514,-36.27515 v 0 c -20.74599,0 -37.62741,16.27473 -37.62741,36.27515"
       style="fill:url(#linearGradient116);stroke:none;stroke-width:1.09509" /><path
       id="path117"
       d="m 0,0 c -0.524,0.191 -1.021,0.429 -1.544,0.607 -1.234,0.421 -2.496,0.688 -3.788,0.871 -1.335,0.189 -2.67,0.226 -4.008,0.167 -1.3,-0.058 -2.58,-0.271 -3.848,-0.59 -1.867,-0.471 -3.566,-1.269 -5.106,-2.417 -2.093,-1.562 -3.602,-3.57 -4.596,-5.981 -0.275,-0.668 -0.501,-1.348 -0.718,-2.034 -0.078,-0.247 -0.009,-0.374 0.26,-0.371 0.133,10e-4 0.266,-0.002 0.398,-0.002 4.24,0 8.48,0 12.72,-10e-4 0.191,0 0.385,0.024 0.601,-0.05 -0.378,-1.061 -0.749,-2.107 -1.123,-3.152 -0.186,-0.52 -0.417,-1.027 -0.554,-1.559 -0.098,-0.38 -0.29,-0.456 -0.638,-0.455 -3.926,0.009 -7.852,0.006 -11.778,0.007 -0.788,0 -0.655,0.012 -0.662,-0.662 -0.003,-0.325 0.015,-0.651 0.022,-0.977 0.006,-0.323 0.14,-0.452 0.489,-0.449 1.655,0.018 3.31,0.007 4.965,0.007 1.45,0 2.9,-0.019 4.349,0.009 0.767,0.015 1.536,-0.039 2.303,0.032 0.35,0.032 0.43,-0.098 0.308,-0.436 -0.53,-1.467 -1.065,-2.932 -1.588,-4.401 -0.105,-0.292 -0.242,-0.424 -0.593,-0.422 -2.886,0.02 -5.772,0.011 -8.658,0.011 h -0.537 c 0.198,-0.496 0.339,-0.954 0.557,-1.372 0.498,-0.958 0.963,-1.933 1.632,-2.796 1.521,-1.966 3.42,-3.417 5.725,-4.352 2.012,-0.817 4.107,-1.175 6.266,-1.235 1.608,-0.045 3.194,0.111 4.785,0.347 1.569,0.233 3.051,0.699 4.519,1.315 0.154,-0.158 0.165,-0.39 0.215,-0.587 0.283,-1.131 0.532,-2.27 0.812,-3.402 0.05,-0.204 -0.004,-0.27 -0.175,-0.35 -1.173,-0.547 -2.411,-0.875 -3.669,-1.147 -2.801,-0.607 -5.638,-0.744 -8.489,-0.641 -1.532,0.056 -3.043,0.298 -4.53,0.676 -2.517,0.641 -4.836,1.696 -6.909,3.273 -1.781,1.354 -3.238,3 -4.389,4.915 -0.995,1.659 -1.707,3.439 -2.203,5.344 h -4.56 c -0.131,0.163 -0.107,0.313 -0.107,0.454 -0.002,1.438 0.009,2.875 -0.008,4.313 -0.005,0.369 0.115,0.47 0.477,0.462 1.002,-0.025 2.005,-0.01 3.008,-0.008 0.42,0.001 0.436,0.048 0.394,0.471 -0.037,0.371 -0.022,0.747 -0.025,1.121 -0.004,0.483 -0.002,0.485 -0.471,0.486 -0.99,0.002 -1.981,0.014 -2.971,-0.004 -0.328,-0.006 -0.412,0.117 -0.41,0.421 0.011,1.461 0.013,2.923 0,4.385 -0.003,0.321 0.11,0.417 0.421,0.414 1.22,-0.013 2.44,0.004 3.66,-0.01 0.325,-0.004 0.464,0.11 0.542,0.43 0.579,2.375 1.524,4.597 2.892,6.627 1.643,2.438 3.741,4.392 6.282,5.876 1.628,0.949 3.359,1.652 5.172,2.132 2.403,0.636 4.861,0.849 7.346,0.785 1.328,-0.035 2.652,-0.13 3.96,-0.343 C -1.997,5.495 -0.446,5.109 1.028,4.463 1.277,4.354 1.37,4.225 1.277,3.939 0.948,2.936 0.65,1.924 0.324,0.92 0.225,0.615 0.198,0.282 0,0"
       style="fill:#8c8c8c;fill-opacity:1;fill-rule:nonzero;stroke:none"
       transform="matrix(1.1153158,0,0,-1.0752333,424.5791,943.28333)"
       clip-path="url(#clipPath118)" /><path
       id="path119"
       d="M 0,0 10.495,-6.009 20.946,0.076 10.448,6.084 Z m 10.5,-7.192 c -0.095,0 -0.196,0.025 -0.279,0.072 l -11.594,6.639 c -0.171,0.097 -0.276,0.278 -0.277,0.475 -0.001,0.197 0.103,0.379 0.273,0.478 l 11.546,6.723 c 0.17,0.099 0.381,0.099 0.55,0.002 l 11.6,-6.639 C 22.49,0.46 22.595,0.279 22.596,0.083 22.597,-0.114 22.493,-0.296 22.323,-0.395 L 10.778,-7.118 C 10.693,-7.167 10.598,-7.192 10.5,-7.192"
       style="fill:#ffffff;fill-opacity:1;fill-rule:nonzero;stroke:none"
       transform="matrix(1.1153158,0,0,-1.0752333,447.24733,808.46703)"
       clip-path="url(#clipPath120)" /><path
       id="path121"
       d="m 0,0 0.045,-12.094 10.453,6.09 -0.044,12.092 z m -0.502,-13.599 c -0.094,0 -0.189,0.025 -0.273,0.073 -0.17,0.098 -0.276,0.279 -0.277,0.475 L -1.101,0.317 c -0.001,0.146 0.057,0.287 0.16,0.39 0.048,0.049 0.105,0.087 0.166,0.115 l 11.499,6.695 c 0.171,0.1 0.381,0.1 0.55,0.003 0.171,-0.098 0.276,-0.279 0.277,-0.476 L 11.599,-6.317 C 11.6,-6.514 11.496,-6.696 11.327,-6.795 l -11.552,-6.729 c -0.085,-0.05 -0.181,-0.075 -0.277,-0.075"
       style="fill:#ffffff;fill-opacity:1;fill-rule:nonzero;stroke:none"
       transform="matrix(1.1153158,0,0,-1.0752333,459.56622,815.95216)"
       clip-path="url(#clipPath122)" /><path
       id="path123"
       d="M 0,0 10.493,-6.012 10.448,6.084 -0.044,12.092 Z m 11.046,-7.514 c -0.094,0 -0.189,0.025 -0.274,0.073 l -11.595,6.644 c -0.17,0.098 -0.275,0.279 -0.276,0.475 L -1.147,13.04 c -10e-4,0.197 0.103,0.379 0.273,0.478 0.17,0.099 0.381,0.099 0.55,0.002 L 11.27,6.881 c 0.17,-0.097 0.276,-0.278 0.277,-0.475 l 0.049,-13.367 c 10e-4,-0.197 -0.103,-0.379 -0.273,-0.478 -0.086,-0.05 -0.181,-0.075 -0.277,-0.075"
       style="fill:#ffffff;fill-opacity:1;fill-rule:nonzero;stroke:none"
       transform="matrix(1.1153158,0,0,-1.0752333,446.68667,822.49484)"
       clip-path="url(#clipPath124)" /><path
       id="path125"
       d="M 0,0 10.474,-6.047 20.947,0 10.47,6.046 Z m 10.476,-7.231 c -0.097,0 -0.197,0.025 -0.281,0.073 l -11.57,6.682 C -1.545,-0.378 -1.65,-0.197 -1.65,0 c 0,0.197 0.105,0.378 0.275,0.476 l 11.57,6.682 c 0.17,0.097 0.381,0.097 0.55,0 L 22.322,0.476 C 22.492,0.378 22.597,0.197 22.597,0 c 0,-0.197 -0.105,-0.378 -0.275,-0.476 L 10.751,-7.158 c -0.084,-0.048 -0.179,-0.073 -0.275,-0.073"
       style="fill:#ffffff;fill-opacity:1;fill-rule:nonzero;stroke:none"
       transform="matrix(1.1153158,0,0,-1.0752333,447.32529,851.84786)"
       clip-path="url(#clipPath126)" /><path
       id="path127"
       d="m 0,0 v -12.094 l 10.477,6.052 V 6.049 Z m -0.55,-13.596 c -0.095,0 -0.19,0.024 -0.275,0.074 -0.17,0.098 -0.275,0.279 -0.275,0.476 V 0.321 c 0,0.223 0.133,0.415 0.324,0.501 l 11.528,6.656 c 0.17,0.098 0.38,0.098 0.55,0 0.17,-0.098 0.275,-0.28 0.275,-0.476 V -6.36 c 0,-0.197 -0.105,-0.379 -0.275,-0.476 l -11.577,-6.686 c -0.085,-0.05 -0.18,-0.074 -0.275,-0.074"
       style="fill:#ffffff;fill-opacity:1;fill-rule:nonzero;stroke:none"
       transform="matrix(1.1153158,0,0,-1.0752333,459.61652,859.37632)"
       clip-path="url(#clipPath128)" /><path
       id="path129"
       d="M 0,0 10.47,-6.05 V 6.047 L 0,12.092 Z m 11.02,-7.553 c -0.094,0 -0.19,0.025 -0.275,0.074 l -11.57,6.686 c -0.17,0.098 -0.275,0.28 -0.275,0.476 v 13.362 c 0,0.197 0.105,0.378 0.275,0.477 0.17,0.097 0.38,0.097 0.55,0 L 11.295,6.841 C 11.465,6.742 11.57,6.561 11.57,6.364 V -7.003 c 0,-0.196 -0.105,-0.378 -0.275,-0.476 -0.084,-0.049 -0.18,-0.074 -0.275,-0.074"
       style="fill:#ffffff;fill-opacity:1;fill-rule:nonzero;stroke:none"
       transform="matrix(1.1153158,0,0,-1.0752333,446.71187,865.8746)"
       clip-path="url(#clipPath130)" /><path
       id="path131"
       d="M 0,0 10.495,-6.009 20.947,0.076 10.449,6.084 Z m 10.5,-7.193 c -0.095,0 -0.195,0.025 -0.278,0.073 l -11.595,6.639 c -0.171,0.098 -0.276,0.278 -0.277,0.475 -0.001,0.196 0.103,0.378 0.273,0.477 L 10.17,7.194 c 0.17,0.1 0.381,0.099 0.55,0.002 l 11.6,-6.638 c 0.171,-0.097 0.276,-0.279 0.277,-0.475 10e-4,-0.197 -0.103,-0.378 -0.273,-0.477 L 10.778,-7.118 C 10.693,-7.167 10.598,-7.193 10.5,-7.193"
       style="fill:#ffffff;fill-opacity:1;fill-rule:nonzero;stroke:none"
       transform="matrix(1.1153158,0,0,-1.0752333,447.21621,895.31072)"
       clip-path="url(#clipPath132)" /><path
       id="path133"
       d="m 0,0 0.045,-12.094 10.453,6.09 -0.044,12.092 z m -0.502,-13.599 c -0.094,0 -0.189,0.025 -0.273,0.074 -0.17,0.097 -0.276,0.278 -0.277,0.474 L -1.101,0.317 c -0.001,0.146 0.057,0.287 0.16,0.39 0.047,0.047 0.102,0.086 0.162,0.113 l 11.503,6.697 c 0.171,0.101 0.381,0.099 0.55,0.003 0.171,-0.098 0.276,-0.279 0.277,-0.475 L 11.599,-6.317 C 11.6,-6.514 11.496,-6.696 11.327,-6.794 l -11.552,-6.729 c -0.085,-0.051 -0.181,-0.076 -0.277,-0.076"
       style="fill:#ffffff;fill-opacity:1;fill-rule:nonzero;stroke:none"
       transform="matrix(1.1153158,0,0,-1.0752333,459.53622,902.7965)"
       clip-path="url(#clipPath134)" /><path
       id="path135"
       d="M 0,0 10.493,-6.012 10.448,6.085 -0.045,12.092 Z m 11.046,-7.513 c -0.094,0 -0.189,0.025 -0.274,0.073 l -11.595,6.644 c -0.17,0.098 -0.275,0.278 -0.276,0.475 l -0.049,13.362 c -0.001,0.197 0.103,0.378 0.273,0.477 0.17,0.1 0.381,0.1 0.549,0.002 L 11.27,6.881 c 0.17,-0.097 0.276,-0.278 0.277,-0.474 l 0.049,-13.368 c 10e-4,-0.197 -0.103,-0.378 -0.273,-0.478 -0.086,-0.049 -0.181,-0.074 -0.277,-0.074"
       style="fill:#ffffff;fill-opacity:1;fill-rule:nonzero;stroke:none"
       transform="matrix(1.1153158,0,0,-1.0752333,446.65677,909.33972)"
       clip-path="url(#clipPath136)" /><path
       id="path137"
       d="m 0,0 10.512,-5.98 -0.078,12.096 -10.51,5.978 z m 11.069,-7.479 c -0.094,0 -0.188,0.024 -0.272,0.072 l -11.613,6.606 c -0.076,0.043 -0.139,0.102 -0.186,0.173 -0.059,0.089 -0.095,0.199 -0.096,0.306 l -0.085,13.361 c -10e-4,0.196 0.102,0.379 0.272,0.478 0.17,0.099 0.38,0.1 0.55,0.004 L 11.254,6.915 c 0.17,-0.097 0.277,-0.278 0.278,-0.475 l 0.087,-13.365 c 10e-4,-0.197 -0.102,-0.379 -0.272,-0.478 -0.086,-0.05 -0.183,-0.076 -0.278,-0.076"
       style="fill:#ffffff;fill-opacity:1;fill-rule:nonzero;stroke:none"
       transform="matrix(1.1153158,0,0,-1.0752333,498.49219,836.88437)"
       clip-path="url(#clipPath138)" /><path
       id="path139"
       d="M 0,0 10.518,-5.98 20.951,0.133 10.435,6.114 Z m 10.522,-7.164 c -0.093,0 -0.188,0.024 -0.272,0.071 l -11.622,6.608 c -0.171,0.097 -0.277,0.278 -0.278,0.474 -0.001,0.197 0.102,0.379 0.272,0.479 l 11.534,6.758 c 0.19,0.11 0.423,0.096 0.596,-0.027 L 22.322,0.618 C 22.493,0.521 22.599,0.34 22.6,0.144 22.602,-0.053 22.498,-0.235 22.329,-0.335 L 10.8,-7.089 c -0.086,-0.05 -0.182,-0.075 -0.278,-0.075"
       style="fill:#ffffff;fill-opacity:1;fill-rule:nonzero;stroke:none"
       transform="matrix(1.1153158,0,0,-1.0752333,486.24413,844.48508)"
       clip-path="url(#clipPath140)" /><path
       id="path141"
       d="m 0,0 0.072,-12.093 10.437,6.116 -0.076,12.09 z m -0.473,-13.6 c -0.093,0 -0.188,0.025 -0.271,0.072 -0.171,0.098 -0.278,0.279 -0.279,0.475 L -1.102,0.311 C -1.103,0.508 -1,0.69 -0.83,0.789 l 11.528,6.755 c 0.17,0.099 0.38,0.1 0.55,0.003 0.171,-0.097 0.277,-0.278 0.278,-0.474 l 0.085,-13.361 c 10e-4,-0.197 -0.102,-0.379 -0.272,-0.479 L -0.194,-13.524 C -0.28,-13.574 -0.377,-13.6 -0.473,-13.6"
       style="fill:#ffffff;fill-opacity:1;fill-rule:nonzero;stroke:none"
       transform="matrix(1.1153158,0,0,-1.0752333,485.54438,830.46114)"
       clip-path="url(#clipPath142)" /><path
       id="path143"
       d="m 0,0 10.512,-5.979 -0.078,12.095 -10.51,5.978 z m 11.069,-7.479 c -0.094,0 -0.188,0.024 -0.272,0.072 l -11.613,6.606 c -0.083,0.046 -0.152,0.114 -0.2,0.195 -0.051,0.084 -0.081,0.186 -0.082,0.285 l -0.085,13.36 c -10e-4,0.196 0.102,0.378 0.272,0.478 0.17,0.1 0.38,0.101 0.55,0.003 L 11.254,6.915 c 0.17,-0.097 0.277,-0.278 0.278,-0.475 l 0.087,-13.365 c 10e-4,-0.197 -0.102,-0.379 -0.272,-0.479 -0.086,-0.05 -0.182,-0.075 -0.278,-0.075"
       style="fill:#ffffff;fill-opacity:1;fill-rule:nonzero;stroke:none"
       transform="matrix(1.1153158,0,0,-1.0752333,420.58738,880.48583)"
       clip-path="url(#clipPath144)" /><path
       id="path145"
       d="M 0,0 10.518,-5.98 20.951,0.132 10.435,6.113 Z m 10.522,-7.165 c -0.093,0 -0.188,0.024 -0.272,0.072 l -11.622,6.607 c -0.171,0.097 -0.277,0.279 -0.278,0.475 -0.001,0.197 0.102,0.378 0.272,0.478 l 11.534,6.758 c 0.194,0.112 0.428,0.094 0.6,-0.029 L 22.322,0.618 C 22.493,0.521 22.599,0.339 22.6,0.143 22.602,-0.054 22.498,-0.235 22.329,-0.335 L 10.8,-7.09 c -0.086,-0.05 -0.182,-0.075 -0.278,-0.075"
       style="fill:#ffffff;fill-opacity:1;fill-rule:nonzero;stroke:none"
       transform="matrix(1.1153158,0,0,-1.0752333,408.33931,888.0859)"
       clip-path="url(#clipPath146)" /><path
       id="path147"
       d="m 0,0 0.072,-12.094 10.437,6.116 -0.076,12.09 z m -0.473,-13.6 c -0.093,0 -0.188,0.024 -0.271,0.072 -0.171,0.098 -0.278,0.279 -0.279,0.475 L -1.102,0.31 C -1.103,0.507 -1,0.689 -0.83,0.788 l 11.528,6.755 c 0.17,0.1 0.38,0.101 0.55,0.003 0.171,-0.096 0.277,-0.278 0.278,-0.474 l 0.085,-13.36 c 10e-4,-0.197 -0.102,-0.379 -0.272,-0.478 L -0.194,-13.524 C -0.28,-13.575 -0.377,-13.6 -0.473,-13.6"
       style="fill:#ffffff;fill-opacity:1;fill-rule:nonzero;stroke:none"
       transform="matrix(1.1153158,0,0,-1.0752333,407.63968,874.06261)"
       clip-path="url(#clipPath148)" /><path
       id="path149"
       d="m 0,0 -0.079,-12.095 10.512,5.979 0.076,12.094 z m -0.636,-13.594 c -0.097,0 -0.192,0.025 -0.278,0.076 -0.17,0.099 -0.273,0.281 -0.272,0.478 l 0.088,13.365 c 0.001,0.197 0.108,0.377 0.278,0.474 l 11.614,6.606 c 0.169,0.097 0.379,0.095 0.55,-0.003 0.169,-0.099 0.273,-0.282 0.272,-0.479 l -0.085,-13.36 c 0,-0.076 -0.016,-0.151 -0.048,-0.22 -0.048,-0.107 -0.131,-0.201 -0.233,-0.259 l -11.614,-6.606 c -0.084,-0.048 -0.178,-0.072 -0.272,-0.072"
       style="fill:#ffffff;fill-opacity:1;fill-rule:nonzero;stroke:none"
       transform="matrix(1.1153158,0,0,-1.0752333,407.80854,829.32344)"
       clip-path="url(#clipPath150)" /><path
       id="path151"
       d="m 0,0 10.434,-6.113 10.517,5.98 -10.435,6.114 z m 10.43,-7.298 c -0.096,0 -0.193,0.026 -0.279,0.075 l -11.529,6.755 c -0.17,0.1 -0.273,0.282 -0.272,0.479 10e-4,0.196 0.107,0.377 0.278,0.474 l 11.585,6.589 c 0.04,0.028 0.087,0.05 0.134,0.065 0.15,0.049 0.314,0.032 0.448,-0.046 L 22.329,0.335 C 22.498,0.236 22.602,0.053 22.6,-0.143 22.599,-0.339 22.493,-0.52 22.322,-0.618 L 10.701,-7.226 C 10.618,-7.274 10.523,-7.298 10.43,-7.298"
       style="fill:#ffffff;fill-opacity:1;fill-rule:nonzero;stroke:none"
       transform="matrix(1.1153158,0,0,-1.0752333,408.32616,843.35663)"
       clip-path="url(#clipPath152)" /><path
       id="path153"
       d="M 0,0 10.437,-6.116 10.51,5.978 0.076,12.09 Z m 10.982,-7.622 c -0.096,0 -0.193,0.026 -0.278,0.076 L -0.83,-0.789 C -1,-0.69 -1.103,-0.507 -1.102,-0.31 l 0.085,13.36 c 10e-4,0.196 0.107,0.377 0.278,0.474 0.17,0.098 0.379,0.096 0.55,-0.003 l 11.53,-6.754 c 0.169,-0.1 0.272,-0.282 0.271,-0.479 L 11.532,-7.075 C 11.531,-7.271 11.424,-7.452 11.254,-7.55 11.17,-7.597 11.075,-7.622 10.982,-7.622"
       style="fill:#ffffff;fill-opacity:1;fill-rule:nonzero;stroke:none"
       transform="matrix(1.1153158,0,0,-1.0752333,420.67126,835.90311)"
       clip-path="url(#clipPath154)" /><path
       id="path155"
       d="m 0,0 -0.079,-12.095 10.512,5.979 0.076,12.094 z m -0.636,-13.594 c -0.097,0 -0.192,0.024 -0.278,0.075 -0.17,0.1 -0.273,0.281 -0.272,0.478 l 0.088,13.365 c 0.001,0.197 0.108,0.379 0.278,0.475 l 11.614,6.607 c 0.169,0.097 0.38,0.096 0.55,-0.004 0.169,-0.099 0.273,-0.281 0.272,-0.478 L 11.531,-6.437 C 11.53,-6.522 11.51,-6.604 11.473,-6.68 11.424,-6.777 11.345,-6.862 11.25,-6.916 l -11.614,-6.606 c -0.084,-0.049 -0.178,-0.072 -0.272,-0.072"
       style="fill:#ffffff;fill-opacity:1;fill-rule:nonzero;stroke:none"
       transform="matrix(1.1153158,0,0,-1.0752333,485.80927,875.44751)"
       clip-path="url(#clipPath156)" /><path
       id="path157"
       d="m 0,0 10.434,-6.112 10.517,5.981 -10.435,6.112 z m 10.43,-7.297 c -0.096,0 -0.193,0.025 -0.279,0.075 l -11.529,6.755 c -0.17,0.1 -0.273,0.281 -0.272,0.478 10e-4,0.196 0.107,0.378 0.278,0.475 l 11.588,6.591 c 0.044,0.029 0.092,0.052 0.143,0.067 0.147,0.041 0.305,0.025 0.436,-0.051 L 22.329,0.336 C 22.498,0.236 22.602,0.055 22.6,-0.142 22.599,-0.338 22.493,-0.52 22.322,-0.617 L 10.701,-7.225 C 10.618,-7.274 10.523,-7.297 10.43,-7.297"
       style="fill:#ffffff;fill-opacity:1;fill-rule:nonzero;stroke:none"
       transform="matrix(1.1153158,0,0,-1.0752333,486.32678,889.48124)"
       clip-path="url(#clipPath158)" /><path
       id="path159"
       d="M 0,0 10.437,-6.114 10.51,5.979 0.076,12.091 Z m 10.982,-7.621 c -0.096,0 -0.193,0.025 -0.278,0.076 L -0.83,-0.788 C -1,-0.689 -1.103,-0.507 -1.102,-0.31 l 0.085,13.361 c 10e-4,0.196 0.107,0.378 0.278,0.474 0.17,0.098 0.38,0.097 0.55,-0.003 L 11.341,6.768 C 11.51,6.668 11.613,6.486 11.612,6.29 L 11.532,-7.074 C 11.531,-7.27 11.424,-7.451 11.254,-7.549 11.17,-7.597 11.075,-7.621 10.982,-7.621"
       style="fill:#ffffff;fill-opacity:1;fill-rule:nonzero;stroke:none"
       transform="matrix(1.1153158,0,0,-1.0752333,498.67199,882.02772)"
       clip-path="url(#clipPath160)" /><path
       id="path161"
       d="m 0,0 c -0.101,0 -0.202,0.027 -0.293,0.085 l -12.233,7.719 c -0.257,0.162 -0.335,0.502 -0.172,0.759 0.163,0.257 0.502,0.333 0.758,0.171 L 0.293,1.015 C 0.55,0.853 0.627,0.513 0.465,0.257 0.361,0.09 0.182,0 0,0"
       style="fill:#ffffff;fill-opacity:1;fill-rule:nonzero;stroke:none"
       transform="matrix(1.1153158,0,0,-1.0752333,485.08443,875.83104)"
       clip-path="url(#clipPath162)" /><path
       id="path163"
       d="m 0,0 c -0.101,0 -0.202,0.027 -0.293,0.085 l -11.953,7.542 c -0.257,0.162 -0.334,0.502 -0.172,0.758 0.162,0.258 0.504,0.332 0.758,0.172 L 0.293,1.015 C 0.55,0.853 0.627,0.513 0.465,0.257 0.361,0.091 0.182,0 0,0"
       style="fill:#ffffff;fill-opacity:1;fill-rule:nonzero;stroke:none"
       transform="matrix(1.1153158,0,0,-1.0752333,446.25057,852.20763)"
       clip-path="url(#clipPath164)" /><path
       id="path165"
       d="m 0,0 v 0 c -0.304,0 -0.55,0.247 -0.55,0.55 l 0.003,13.654 c 0,0.304 0.246,0.55 0.55,0.55 0.304,0 0.55,-0.246 0.55,-0.55 L 0.55,0.55 C 0.55,0.246 0.304,0 0,0"
       style="fill:#ffffff;fill-opacity:1;fill-rule:nonzero;stroke:none"
       transform="matrix(1.1153158,0,0,-1.0752333,459.0031,845.2555)"
       clip-path="url(#clipPath166)" /><path
       id="path167"
       d="M 0,0 H -0.005 C -0.308,0.003 -0.552,0.251 -0.55,0.555 l 0.121,13.655 c 0.004,0.302 0.249,0.544 0.55,0.544 H 0.127 C 0.43,14.751 0.674,14.503 0.671,14.199 L 0.55,0.545 C 0.547,0.243 0.302,0 0,0"
       style="fill:#ffffff;fill-opacity:1;fill-rule:nonzero;stroke:none"
       transform="matrix(1.1153158,0,0,-1.0752333,458.8677,888.67729)"
       clip-path="url(#clipPath168)" /><path
       id="path169"
       d="m 0,0 c -0.19,0 -0.375,0.099 -0.477,0.276 -0.151,0.263 -0.06,0.599 0.203,0.751 l 11.892,6.835 c 0.26,0.152 0.598,0.061 0.751,-0.203 C 12.52,7.396 12.429,7.06 12.166,6.908 L 0.274,0.073 C 0.188,0.024 0.093,0 0,0"
       style="fill:#ffffff;fill-opacity:1;fill-rule:nonzero;stroke:none"
       transform="matrix(1.1153158,0,0,-1.0752333,432.83556,874.15615)"
       clip-path="url(#clipPath170)" /><path
       id="path171"
       d="m 0,0 c -0.189,0 -0.373,0.098 -0.475,0.273 -0.153,0.262 -0.064,0.599 0.198,0.752 L 11.471,7.866 C 11.73,8.018 12.069,7.931 12.222,7.667 12.376,7.405 12.287,7.068 12.025,6.915 L 0.277,0.075 C 0.19,0.024 0.095,0 0,0"
       style="fill:#ffffff;fill-opacity:1;fill-rule:nonzero;stroke:none"
       transform="matrix(1.1153158,0,0,-1.0752333,471.91489,852.43923)"
       clip-path="url(#clipPath172)" /><path
       id="path173"
       d="m 0,0 c 2.189,1.639 3.223,3.916 3.146,6.864 -0.066,1.463 -0.704,3.08 -1.98,4.862 -0.858,1.188 -2.079,2.442 -3.707,3.74 -0.506,0.429 -1.518,1.133 -3.036,2.112 -1.287,0.836 -2.244,1.562 -2.871,2.145 -1.705,1.617 -2.563,3.223 -2.563,4.785 0,0.99 0.253,1.837 0.77,2.497 0.616,0.836 1.518,1.265 2.728,1.265 1.155,0 2.013,-0.275 2.552,-0.814 0.847,-0.825 1.353,-1.914 1.529,-3.3 l 6.303,0.902 c -0.242,2.409 -1.364,4.367 -3.399,5.852 -1.155,0.836 -2.618,1.419 -4.356,1.738 v 2.2 h -5.533 v -2.2 c -2.563,-0.495 -4.488,-1.639 -5.775,-3.443 -1.056,-1.441 -1.584,-3.036 -1.584,-4.796 0,-1.837 0.539,-3.531 1.672,-5.093 0.902,-1.254 2.365,-2.64 4.378,-4.136 2.574,-1.914 4.521,-3.355 5.83,-4.334 1.617,-1.408 2.42,-2.805 2.42,-4.213 0,-0.979 -0.209,-1.716 -0.638,-2.244 -0.858,-1.078 -2.013,-1.617 -3.443,-1.661 -1.012,-0.044 -1.903,0.275 -2.684,0.935 -1.034,0.858 -1.705,2.299 -1.98,4.312 L -18.48,7.623 c 0.154,-2.178 0.836,-4.092 2.046,-5.72 1.408,-1.903 3.399,-3.113 6.017,-3.641 v -2.497 h 5.533 v 2.376 C -2.948,-1.584 -1.331,-0.957 0,0 m -7.667,41.459 c 14.421,0 26.147,-11.737 26.147,-26.158 0,-14.41 -11.726,-26.147 -26.147,-26.147 -14.421,0 -26.147,11.737 -26.147,26.147 0,14.421 11.726,26.158 26.147,26.158"
       style="fill:#8c8c8c;fill-opacity:1;fill-rule:nonzero;stroke:none"
       transform="matrix(1.1153158,0,0,-1.0752333,204.7364,1007.9766)"
       clip-path="url(#clipPath174)" /><path
       id="path175"
       d="m 193.11826,970.50715 v 2.36444 c -2.85855,0.53224 -5.00554,1.76341 -6.44095,3.7031 v 0 c -1.17777,1.54947 -1.76666,3.26336 -1.76666,5.15685 v 0 c 0,1.97518 0.60116,3.79665 1.86369,5.47619 v 0 c 1.00713,1.34834 2.63884,2.83862 4.88398,4.44606 v 0 c 2.87082,2.05905 5.04234,3.60851 6.50228,4.66114 v 0 c 1.80347,1.51285 2.69907,3.01603 2.69907,4.52997 v 0 c 0,1.0527 -0.2331,1.8451 -0.71157,2.4117 v 0 c -0.95694,1.1602 -2.24513,1.7397 -3.84004,1.7871 v 0 c -1.12869,0.048 -2.12244,-0.2968 -2.9935,-1.0054 v 0 c -1.15324,-0.9225 -1.90273,-2.4719 -2.20833,-4.63638 v 0 l -6.98076,0.37846 c 0.17176,2.34182 0.9324,4.39982 2.28193,6.15032 v 0 c 1.57037,2.0462 3.78985,3.3461 6.71086,3.915 v 0 2.6848 h 6.17104 v -2.5547 c 2.15926,-0.2957 3.96272,-0.971 5.4472,-1.9989 v 0 c 2.44143,-1.7623 3.59467,-4.2106 3.50879,-7.3815 v 0 c -0.0736,-1.57193 -0.78518,-3.31058 -2.20832,-5.22665 v 0 c -0.95695,-1.27738 -2.31875,-2.62572 -4.1356,-4.0214 v 0 c -0.56323,-0.46127 -1.69193,-1.21826 -3.38498,-2.27089 v 0 c -1.43541,-0.89892 -2.50277,-1.68059 -3.20207,-2.30638 v 0 c -1.90162,-1.73865 -2.85856,-3.46658 -2.85856,-5.14499 v 0 c 0,-1.06448 0.28218,-1.97518 0.8588,-2.68596 v 0 c 0.68703,-0.89779 1.69305,-1.35907 3.04258,-1.35907 v 0 c 1.28819,0 2.24513,0.29459 2.84629,0.87417 v 0 c 0.94467,0.88811 1.50902,2.05904 1.7042,3.54932 v 0 l 7.03095,-0.96981 c -0.2699,-2.59024 -1.52129,-4.69557 -3.79096,-6.29229 v 0 c -1.28819,-0.89892 -2.91989,-1.52576 -4.85832,-1.86986 v 0 -2.36444 z"
       style="fill:url(#linearGradient175);stroke:none;stroke-width:1.09509" /><path
       id="path177"
       d="m 161.08527,991.52476 c 0,18.65104 15.74046,33.83864 35.10011,33.83864 v 0 c 19.35966,0 35.10011,-15.1876 35.10011,-33.83864 v 0 c 0,-18.66494 -15.74045,-33.83864 -35.10011,-33.83864 v 0 c -19.35965,0 -35.10011,15.1737 -35.10011,33.83864 m 5.93795,0 c 0,-15.50594 13.07819,-28.12705 29.16216,-28.12705 v 0 c 16.08397,0 29.16216,12.62111 29.16216,28.12705 v 0 c 0,15.49414 -13.07819,28.11414 -29.16216,28.11414 v 0 c -16.08397,0 -29.16216,-12.62 -29.16216,-28.11414"
       style="fill:url(#linearGradient177);stroke:none;stroke-width:1.09509" /><g
       mask="url(#mask177)"
       id="g181"
       clip-path="url(#clipPath182)"
       transform="matrix(0.8364869,0,0,0.806425,25.913452,635.89348)"><path
         d="m 328.243,161.09 c 0,0 11.674,-4.719 23.83,-1.314 v 0 l 8.846,33.412 z"
         transform="matrix(1.3333333,0,0,-1.3333333,0,666.66667)"
         style="fill:url(#linearGradient181);stroke:none"
         id="path181" /></g><path
       id="path183"
       d="m 416.77255,990.96777 c 0,18.66503 15.74045,33.83973 35.1001,33.83973 v 0 c 19.35966,0 35.10011,-15.1747 35.10011,-33.83973 v 0 c 0,-18.651 -15.74045,-33.8376 -35.10011,-33.8376 v 0 c -19.35965,0 -35.1001,15.1866 -35.1001,33.8376 m 5.93794,0 c 0,-15.49409 13.07819,-28.11408 29.16216,-28.11408 v 0 c 16.08285,0 29.16105,12.61999 29.16105,28.11408 v 0 c 0,15.50703 -13.0782,28.12703 -29.16105,28.12703 v 0 c -16.08397,0 -29.16216,-12.62 -29.16216,-28.12703"
       style="fill:url(#linearGradient183);stroke:none;stroke-width:1.09509" /><path
       id="path184"
       d="m 0,0 c -0.396,-1.177 -0.77,-2.288 -1.144,-3.41 h -0.341 c -1.661,0 -3.322,0 -4.994,0.011 -0.242,0 -0.33,-0.066 -0.319,-0.319 0.022,-0.33 0.022,-0.66 0.011,-1.001 -0.011,-0.209 0.077,-0.286 0.275,-0.286 0.099,0.011 0.187,0 0.286,0 h 5.742 c 0.132,0 0.275,0.033 0.418,-0.044 0.011,-0.297 -0.143,-0.561 -0.231,-0.836 -0.231,-0.737 -0.506,-1.463 -0.737,-2.2 -0.077,-0.231 -0.187,-0.286 -0.407,-0.286 -1.617,0.011 -3.245,0.011 -4.873,0.011 -0.473,0 -0.473,0 -0.473,-0.484 v -6.127 c 0,-0.396 0,-0.396 -0.407,-0.396 -1.122,0 -2.244,0.011 -3.366,0 -0.22,0 -0.33,0.044 -0.319,0.286 0.011,0.495 0,0.979 0,1.474 v 4.818 c 0,0.418 0,0.429 -0.418,0.429 h -5.401 c -0.121,0 -0.242,-0.022 -0.374,0.044 0.011,0.297 0.165,0.572 0.253,0.858 0.231,0.726 0.484,1.452 0.715,2.178 0.077,0.22 0.187,0.286 0.407,0.286 1.386,-0.011 2.772,-0.011 4.158,-0.011 0.77,0 0.649,-0.044 0.66,0.682 0.011,0.297 0,0.594 0,0.913 h -6.259 c 0.176,0.517 0.33,0.99 0.495,1.474 0.187,0.561 0.385,1.111 0.561,1.672 0.066,0.209 0.176,0.253 0.363,0.253 1.122,-0.011 2.244,0 3.377,0 0.11,0 0.231,-0.022 0.374,0.055 -2.992,5.412 -5.973,10.813 -8.943,16.203 0.088,0.132 0.187,0.11 0.275,0.11 h 4.103 c 0.187,0 0.297,-0.066 0.385,-0.242 1.034,-2.035 2.079,-4.07 3.113,-6.105 0.869,-1.716 1.705,-3.443 2.596,-5.148 0.605,-1.177 1.122,-2.387 1.683,-3.586 0.044,-0.077 0.066,-0.176 0.187,-0.22 0.187,0.264 0.286,0.583 0.418,0.88 0.495,1.111 1.034,2.189 1.584,3.267 0.495,0.968 0.946,1.947 1.474,2.882 0.429,0.77 0.814,1.562 1.221,2.332 0.957,1.771 1.859,3.564 2.783,5.346 0.011,0.022 0.044,0.044 0.044,0.066 0.143,0.462 0.462,0.55 0.913,0.539 1.188,-0.033 2.376,-0.011 3.564,-0.011 0.099,0 0.209,0.022 0.363,-0.066 C 0.649,10.879 -2.497,5.467 -5.676,0 Z m -8.558,30.327 c -14.421,0 -26.147,-11.737 -26.147,-26.147 0,-14.421 11.726,-26.158 26.147,-26.158 14.421,0 26.147,11.737 26.147,26.158 0,14.41 -11.726,26.147 -26.147,26.147"
       style="fill:#8c8c8c;fill-opacity:1;fill-rule:nonzero;stroke:none"
       transform="matrix(1.1153158,0,0,-1.0752333,461.41742,995.46302)"
       clip-path="url(#clipPath185)" /><path
       id="path186"
       d="m 460.25202,978.4435 c 0,0.0234 -0.0368,0.0476 -0.0491,0.0702 v 0 c -1.03167,1.91607 -2.03656,3.84504 -3.10392,5.7482 v 0 c -0.45394,0.829 -0.88333,1.68059 -1.3618,2.50846 v 0 c -0.58889,1.00433 -1.0919,2.058 -1.64398,3.09885 v 0 c -0.61342,1.15908 -1.2157,2.31711 -1.76778,3.51279 v 0 c -0.14611,0.31935 -0.25652,0.66127 -0.46508,0.94618 v 0 c -0.13607,-0.0476 -0.1595,-0.1537 -0.20856,-0.23652 v 0 c -0.6257,-1.28924 -1.20343,-2.59129 -1.87708,-3.85576 v 0 c -0.99375,-1.83333 -1.92615,-3.69133 -2.89537,-5.53531 v 0 c -1.15323,-2.18815 -2.31873,-4.37727 -3.47197,-6.56542 v 0 c -0.0981,-0.18814 -0.22083,-0.26016 -0.42939,-0.26016 v 0 h -4.57615 c -0.0993,0 -0.20968,-0.0226 -0.30671,0.11935 v 0 c 3.31249,5.79546 6.63725,11.60285 9.97427,17.42201 v 0 c -0.1595,0.0827 -0.29445,0.0589 -0.41713,0.0589 v 0 c -1.26365,0 -2.51503,0.0105 -3.76642,0 v 0 c -0.20856,0 -0.33125,0.0476 -0.40486,0.27096 v 0 c -0.1963,0.60425 -0.41713,1.1956 -0.62569,1.79881 v 0 c -0.18514,0.52047 -0.3569,1.02795 -0.55208,1.58495 v 0 h 6.98076 c 0,0.34297 0.0111,0.66231 0,0.98171 v 0 c -0.0123,0.7806 0.12268,0.7333 -0.73611,0.7333 v 0 c -1.54583,0 -3.09166,0 -4.63749,-0.012 v 0 c -0.24647,0 -0.36805,0.071 -0.45392,0.3075 v 0 c -0.25764,0.7807 -0.53982,1.5613 -0.79746,2.3419 v 0 c -0.0981,0.3064 -0.27102,0.6032 -0.28217,0.9225 v 0 c 0.14722,0.071 0.28217,0.048 0.41713,0.048 v 0 h 6.02382 c 0.4662,0 0.4662,0.012 0.4662,0.4602 v 0 5.1816 c 0,0.5322 0.0111,1.0526 0,1.5848 v 0 c -0.0123,0.2591 0.11041,0.3065 0.35578,0.3065 v 0 c 1.25138,-0.01 2.50277,0 3.75415,0 v 0 c 0.45394,0 0.45394,0 0.45394,-0.4258 v 0 -6.5869 c 0,-0.5204 0,-0.5204 0.52755,-0.5204 v 0 c 1.81461,0 3.63146,0 5.43493,0.012 v 0 c 0.24425,0 0.36805,-0.059 0.45393,-0.3086 v 0 c 0.25764,-0.7925 0.56324,-1.572 0.82199,-2.3644 v 0 c 0.0981,-0.2958 0.26991,-0.5796 0.25763,-0.899 v 0 c -0.15948,-0.084 -0.31897,-0.047 -0.46619,-0.047 v 0 h -6.40415 c -0.11041,0 -0.20856,-0.012 -0.3201,0 v 0 c -0.21971,0 -0.31786,-0.084 -0.30559,-0.3075 v 0 c 0.0123,-0.3678 0.0123,-0.72157 -0.0123,-1.07639 v 0 c -0.0134,-0.27201 0.0859,-0.34298 0.35579,-0.34298 v 0 c 1.86481,0.0121 3.71735,0.0121 5.56989,0.0121 v 0 h 0.38032 c 0.41601,-1.20641 0.83426,-2.40097 1.27592,-3.66657 v 0 h -6.33165 c 3.54671,-5.87933 7.0555,-11.69744 10.56427,-17.5166 v 0 c -0.17175,-0.0946 -0.29444,-0.0718 -0.40486,-0.0718 v 0 c -1.3261,0 -2.6511,0.025 -3.97498,-0.0121 v 0 c -0.0257,0 -0.0513,0 -0.0759,0 v 0 c -0.46286,0 -0.79077,0.10862 -0.94245,0.58062"
       style="fill:url(#linearGradient186);stroke:none;stroke-width:1.09509" /><path
       id="path187"
       d="M 0,0 V 41.212 H -16.087"
       style="fill:none;stroke:#ffffff;stroke-width:1;stroke-linecap:butt;stroke-linejoin:miter;stroke-miterlimit:10;stroke-dasharray:none;stroke-opacity:1"
       transform="matrix(1.1153158,0,0,-1.0752333,340.01429,1014.8197)"
       clip-path="url(#clipPath188)" /><path
       id="path189"
       d="m 0,0 v 32.506 l 6.462,6.669 v 17.463"
       style="fill:none;stroke:#ffffff;stroke-width:1;stroke-linecap:butt;stroke-linejoin:miter;stroke-miterlimit:10;stroke-dasharray:none;stroke-opacity:1"
       transform="matrix(1.1153158,0,0,-1.0752333,344.38499,1014.8197)"
       clip-path="url(#clipPath190)" /><path
       id="path191"
       d="M 0,0 V 19.1"
       style="fill:none;stroke:#ffffff;stroke-width:1;stroke-linecap:butt;stroke-linejoin:miter;stroke-miterlimit:10;stroke-dasharray:none;stroke-opacity:1"
       transform="matrix(1.1153158,0,0,-1.0752333,335.56696,1014.8197)"
       clip-path="url(#clipPath192)" /><path
       id="path193"
       d="M 0,0 C 3.539,0 3.545,5.5 0,5.5 -3.539,5.5 -3.545,0 0,0"
       style="fill:#ffffff;fill-opacity:1;fill-rule:nonzero;stroke:none"
       transform="matrix(1.1153158,0,0,-1.0752333,351.51598,955.76917)"
       clip-path="url(#clipPath194)" /><path
       id="path195"
       d="M 0,0 C 3.539,0 3.545,5.5 0,5.5 -3.539,5.5 -3.545,0 0,0"
       style="fill:#ffffff;fill-opacity:1;fill-rule:nonzero;stroke:none"
       transform="matrix(1.1153158,0,0,-1.0752333,320.46135,973.14086)"
       clip-path="url(#clipPath196)" /><path
       id="path197"
       d="M 0,0 C 3.539,0 3.545,5.5 0,5.5 -3.539,5.5 -3.545,0 0,0"
       style="fill:#ffffff;fill-opacity:1;fill-rule:nonzero;stroke:none"
       transform="matrix(1.1153158,0,0,-1.0752333,335.56696,996.13074)"
       clip-path="url(#clipPath198)" /><path
       id="path199"
       d="M 0,0 7.218,8.113 V 36.899"
       style="fill:none;stroke:#ffffff;stroke-width:1;stroke-linecap:butt;stroke-linejoin:miter;stroke-miterlimit:10;stroke-dasharray:none;stroke-opacity:1"
       transform="matrix(1.1153158,0,0,-1.0752333,235.03507,955.91699)"
       clip-path="url(#clipPath200)" /><path
       id="path201"
       d="M 0,0 H 23.077"
       style="fill:none;stroke:#ffffff;stroke-width:1;stroke-linecap:butt;stroke-linejoin:miter;stroke-miterlimit:10;stroke-dasharray:none;stroke-opacity:1"
       transform="matrix(1.1153158,0,0,-1.0752333,235.03507,961.09158)"
       clip-path="url(#clipPath202)" /><path
       id="path203"
       d="M 0,0 H 13.03"
       style="fill:none;stroke:#ffffff;stroke-width:1;stroke-linecap:butt;stroke-linejoin:miter;stroke-miterlimit:10;stroke-dasharray:none;stroke-opacity:1"
       transform="matrix(1.1153158,0,0,-1.0752333,235.03507,968.48383)"
       clip-path="url(#clipPath204)" /><path
       id="path205"
       d="M 0,0 V -38.324"
       style="fill:none;stroke:#ffffff;stroke-width:1;stroke-linecap:butt;stroke-linejoin:miter;stroke-miterlimit:10;stroke-dasharray:none;stroke-opacity:1"
       transform="matrix(1.1153158,0,0,-1.0752333,302.59544,857.17005)"
       clip-path="url(#clipPath206)" /><path
       id="path207"
       d="M 0,0 6.417,6.6 V 17.385"
       style="fill:none;stroke:#ffffff;stroke-width:1;stroke-linecap:butt;stroke-linejoin:miter;stroke-miterlimit:10;stroke-dasharray:none;stroke-opacity:1"
       transform="matrix(1.1153158,0,0,-1.0752333,302.59544,887.02142)"
       clip-path="url(#clipPath208)" /><path
       id="path209"
       d="M 0,0 V 16.611"
       style="fill:none;stroke:#ffffff;stroke-width:1;stroke-linecap:butt;stroke-linejoin:miter;stroke-miterlimit:10;stroke-dasharray:none;stroke-opacity:1"
       transform="matrix(1.1153158,0,0,-1.0752333,297.07463,898.37729)"
       clip-path="url(#clipPath210)" /><path
       id="path211"
       d="M 0,0 C 3.539,0 3.545,5.5 0,5.5 -3.539,5.5 -3.545,0 0,0"
       style="fill:#ffffff;fill-opacity:1;fill-rule:nonzero;stroke:none"
       transform="matrix(1.1153158,0,0,-1.0752333,296.87019,882.68458)"
       clip-path="url(#clipPath212)" /><path
       id="path213"
       d="M 0,0 C 3.539,0 3.545,5.5 0,5.5 -3.539,5.5 -3.545,0 0,0"
       style="fill:#ffffff;fill-opacity:1;fill-rule:nonzero;stroke:none"
       transform="matrix(1.1153158,0,0,-1.0752333,309.75209,870.56143)"
       clip-path="url(#clipPath214)" /><path
       id="path215"
       d="M 0,0 C 3.539,0 3.545,5.5 0,5.5 -3.539,5.5 -3.545,0 0,0"
       style="fill:#ffffff;fill-opacity:1;fill-rule:nonzero;stroke:none"
       transform="matrix(1.1153158,0,0,-1.0752333,260.9849,964.09769)"
       clip-path="url(#clipPath216)" /><path
       id="path217"
       d="M 0,0 C 3.539,0 3.545,5.5 0,5.5 -3.539,5.5 -3.545,0 0,0"
       style="fill:#ffffff;fill-opacity:1;fill-rule:nonzero;stroke:none"
       transform="matrix(1.1153158,0,0,-1.0752333,242.99107,918.75876)"
       clip-path="url(#clipPath218)" /><path
       id="path219"
       d="M 0,0 C 3.539,0 3.545,5.5 0,5.5 -3.539,5.5 -3.545,0 0,0"
       style="fill:#ffffff;fill-opacity:1;fill-rule:nonzero;stroke:none"
       transform="matrix(1.1153158,0,0,-1.0752333,249.73872,971.78566)"
       clip-path="url(#clipPath220)" /><path
       id="path221"
       d="m 0,0 v -31.404 l 7.837,-7.975 v -16.5"
       style="fill:none;stroke:#ffffff;stroke-width:1;stroke-linecap:butt;stroke-linejoin:miter;stroke-miterlimit:10;stroke-dasharray:none;stroke-opacity:1"
       transform="matrix(1.1153158,0,0,-1.0752333,346.60859,747.98988)"
       clip-path="url(#clipPath222)" /><path
       id="path223"
       d="M 0,0 -0.458,-42.679"
       style="fill:none;stroke:#ffffff;stroke-width:1;stroke-linecap:butt;stroke-linejoin:miter;stroke-miterlimit:10;stroke-dasharray:none;stroke-opacity:1"
       transform="matrix(1.1153158,0,0,-1.0752333,342.059,747.98988)"
       clip-path="url(#clipPath224)" /><path
       id="path225"
       d="M 0,0 V -20.404"
       style="fill:none;stroke:#ffffff;stroke-width:1;stroke-linecap:butt;stroke-linejoin:miter;stroke-miterlimit:10;stroke-dasharray:none;stroke-opacity:1"
       transform="matrix(1.1153158,0,0,-1.0752333,352.79391,747.98988)"
       clip-path="url(#clipPath226)" /><path
       id="path227"
       d="m 0,0 v -19.029 l 6.23,-6.876"
       style="fill:none;stroke:#ffffff;stroke-width:1;stroke-linecap:butt;stroke-linejoin:miter;stroke-miterlimit:10;stroke-dasharray:none;stroke-opacity:1"
       transform="matrix(1.1153158,0,0,-1.0752333,334.80019,747.98988)"
       clip-path="url(#clipPath228)" /><path
       id="path229"
       d="M 0,0 C 3.539,0 3.545,5.5 0,5.5 -3.539,5.5 -3.545,0 0,0"
       style="fill:#ffffff;fill-opacity:1;fill-rule:nonzero;stroke:none"
       transform="matrix(1.1153158,0,0,-1.0752333,341.65012,797.03332)"
       clip-path="url(#clipPath230)" /><path
       id="path231"
       d="M 0,0 C 3.539,0 3.545,5.5 0,5.5 -3.539,5.5 -3.545,0 0,0"
       style="fill:#ffffff;fill-opacity:1;fill-rule:nonzero;stroke:none"
       transform="matrix(1.1153158,0,0,-1.0752333,352.99846,772.98401)"
       clip-path="url(#clipPath232)" /><path
       id="path233"
       d="M 0,0 C 3.539,0 3.545,5.5 0,5.5 -3.539,5.5 -3.545,0 0,0"
       style="fill:#ffffff;fill-opacity:1;fill-rule:nonzero;stroke:none"
       transform="matrix(1.1153158,0,0,-1.0752333,355.34988,811.12791)"
       clip-path="url(#clipPath234)" /></g></svg>
