<?xml version="1.0" encoding="UTF-8" standalone="no"?>
<!-- Created with Inkscape (http://www.inkscape.org/) -->

<svg
   width="152.95799mm"
   height="51.266682mm"
   viewBox="0 0 152.95799 51.266682"
   version="1.1"
   id="svg1"
   xml:space="preserve"
   xmlns="http://www.w3.org/2000/svg"
   xmlns:svg="http://www.w3.org/2000/svg"><defs
     id="defs1" /><g
     id="layer1"
     transform="translate(-42.094087,-108.65357)"><path
       id="path1"
       style="fill:#d47000;fill-opacity:1;stroke-width:0.642484"
       d="m 65.485445,108.6537 c -6.399137,0.013 -11.865742,2.24358 -16.509087,6.73555 -0.394099,0.38126 -0.722851,0.72883 -1.05454,1.07927 -0.03643,0.18807 -0.08133,0.38036 -0.131311,0.57474 3.440175,-4.00164 8.198474,-6.72659 13.725895,-7.77106 2.279984,-0.43083 6.349991,-0.39363 8.667888,0.079 3.317513,0.67649 5.843145,1.70617 8.665857,3.53269 0.457276,0.29589 1.018168,0.72967 1.596999,1.20042 0.08069,-0.0624 0.166616,-0.11858 0.251144,-0.17667 -2.375832,-1.97039 -4.777683,-3.26271 -7.74263,-4.17992 -2.598431,-0.80383 -4.519108,-1.08036 -7.470215,-1.07405 z m 0.16,4.57408 v 3.3e-4 c -1.310218,0.002 -2.623077,0.0853 -3.528521,0.25144 -5.593954,1.02657 -10.757614,4.75397 -13.305634,9.60435 -2.036674,3.87698 -2.601807,8.77306 -1.492356,12.93064 0.437019,1.63769 1.817417,4.68015 2.469932,5.44434 l 0.342624,0.40135 4.32177,-2.97224 c 2.665244,-1.79211 2.703312,-1.82594 2.205623,-1.98154 -0.278521,-0.0871 -0.537319,-0.18446 -0.575206,-0.21619 -0.05393,-0.0451 0.918396,-1.96884 1.116316,-2.20849 0.02496,-0.0301 0.482372,0.0782 1.016393,0.241 0.946101,0.2885 0.979081,0.28775 1.287456,-0.0287 0.174062,-0.17861 1.03235,-2.38788 1.90722,-4.90978 1.590162,-4.58372 1.590458,-4.5855 1.266865,-5.0048 -0.178041,-0.23069 -0.683103,-0.53743 -1.122387,-0.68152 -0.43929,-0.14409 -0.84226,-0.30521 -0.895887,-0.35823 -0.05359,-0.053 0.06133,-0.55169 0.255532,-1.108 l 0.353088,-1.01135 1.922072,0.65475 c 1.057163,0.36023 2.009035,0.62292 2.115155,0.58356 0.106117,-0.0394 0.415293,-0.70081 0.68694,-1.46984 0.271651,-0.76903 0.54721,-1.45714 0.612336,-1.52893 0.06513,-0.0718 0.551586,0.0298 1.081202,0.22597 l 0.963062,0.3566 -0.501615,1.43554 c -0.275887,0.78957 -0.501611,1.52599 -0.501611,1.63671 0,0.11071 0.213868,0.25092 0.47528,0.3112 0.261408,0.0603 0.603872,0.1463 0.761205,0.19136 0.228654,0.0655 0.39531,-0.23516 0.830399,-1.49857 l 0.544486,-1.58053 1.027536,0.33571 c 0.565157,0.18462 1.027531,0.38962 1.027531,0.45554 0,0.0659 -0.236412,0.74633 -0.525247,1.51195 -0.28884,0.76562 -0.501738,1.45942 -0.473258,1.54201 0.02849,0.0826 0.520029,0.40143 1.092346,0.70829 l 1.040365,0.55777 3.655445,-2.48119 c 1.124789,-0.7635 4.132013,-2.67754 3.808025,-2.9981 l -3.102187,-3.06931 c -2.38228,-2.357 -6.721148,-3.62359 -8.649658,-4.02905 -0.894865,-0.16421 -2.202444,-0.24533 -3.512657,-0.24393 z m 19.137668,9.89824 c -0.0517,0.003 -0.106059,0.003 -0.158314,0.005 -0.01656,0.0217 -0.02582,0.0476 -0.01148,0.0781 0.03246,0.0689 0.462618,0.9154 0.955633,1.88095 1.630454,3.19331 2.266567,5.62212 2.408491,9.19583 0.154062,3.87889 -0.517717,7.10845 -2.180973,10.48637 -2.814922,5.71665 -7.618695,9.62298 -13.093311,11.53625 -0.427441,0.14939 -0.862099,0.27565 -1.297242,0.40003 0.0039,0.008 0.01084,0.0115 0.0145,0.0186 0.07488,0.14466 0.09996,0.18452 0.169451,0.31675 0.163102,-0.0553 0.288136,-0.10539 0.463132,-0.16067 3.624804,-1.14499 6.923689,-3.14759 9.626222,-5.84339 3.153841,-3.14597 5.09264,-6.60097 6.143943,-10.94812 0.397948,-1.64557 0.455072,-2.24749 0.464148,-4.88626 0.01102,-3.21026 -0.174991,-4.46825 -1.05015,-7.09705 -0.496987,-1.49277 -2.113717,-4.75698 -2.454063,-4.98259 z m -41.555078,2.28002 c -0.161999,0.18297 -0.32976,0.35716 -0.505327,0.51922 -0.350591,1.45328 -0.541704,2.99569 -0.60491,4.79123 -0.09661,2.74456 0.09307,4.57569 0.734195,6.70813 0.199729,0.26499 0.39547,0.5464 0.586342,0.84643 -0.687455,-2.14527 -1.025846,-4.37736 -1.025846,-6.83482 0,-2.15131 0.269098,-4.12703 0.815546,-6.03019 z m 37.516164,0.13389 c -0.328313,0.0724 -1.522704,0.76502 -5.962333,3.42133 l -1.9376,1.15926 0.593434,0.75207 c 1.105625,1.40121 1.151253,2.71591 0.1519,4.3752 -0.413105,0.68584 -1.442724,1.37905 -2.048318,1.37905 -0.396348,0 -0.3251,0.21704 0.244395,0.74487 1.434609,1.32969 1.389492,3.27526 -0.124561,5.35323 -0.763226,1.04751 -1.955864,1.58879 -3.503877,1.59132 -0.977629,0.002 -1.694821,-0.12407 -3.374602,-0.59075 -0.315224,-0.0876 -0.435461,0.0885 -1.027531,1.50575 -0.368809,0.88283 -0.752448,1.57329 -0.852681,1.53449 -0.10023,-0.0388 -0.532265,-0.20374 -0.960021,-0.36672 -0.427748,-0.16298 -0.801318,-0.31327 -0.830061,-0.33375 -0.02873,-0.0205 0.224056,-0.69994 0.5617,-1.50999 0.337644,-0.81005 0.614023,-1.5325 0.614023,-1.60535 0,-0.12788 -1.110635,-0.63842 -1.388726,-0.63842 -0.07507,0 -0.426513,0.67715 -0.781112,1.50478 -0.354601,0.82756 -0.705113,1.50477 -0.778757,1.50477 -0.130048,0 -1.751775,-0.64576 -1.842744,-0.73377 -0.02496,-0.0242 0.230239,-0.70458 0.566764,-1.51195 0.336533,-0.80739 0.586179,-1.54212 0.554951,-1.63279 -0.06465,-0.18761 -2.285351,-1.13739 -2.659303,-1.13739 -0.135066,0 -0.553535,0.1881 -0.929978,0.41798 l -6.5703,3.8731 0.735883,1.06948 c 0.186241,0.2707 1.695749,1.86765 5.091091,4.19689 3.395341,2.32927 7.818244,3.05101 7.818244,3.05101 3.318179,0.50794 5.54468,0.45669 7.126582,0.0375 4.625066,-1.22536 8.687754,-3.90243 11.263049,-7.66067 3.032923,-4.42608 3.932108,-9.73657 2.528331,-14.93374 -0.348864,-1.2916 -1.858345,-4.6198 -2.183339,-4.8141 -0.01852,-0.011 -0.04762,-0.0132 -0.09452,-0.003 z m -14.059403,0.53 -0.599848,1.79475 c -0.329803,0.98713 -0.599503,1.86968 -0.599503,1.96129 0,0.0916 -0.198808,0.74796 -0.521532,1.70267 1.158511,-0.69042 1.786856,-1.10784 1.854898,-1.10082 0.09031,0.009 3.014313,-1.89373 3.749617,-2.44035 0.34494,-0.25645 -2.078386,-1.59514 -3.273661,-1.80848 z m 3.222019,5.96748 c -0.158249,-0.0946 -3.893653,2.06263 -3.773257,2.17911 0.03495,0.0338 0.370074,0.13093 0.744664,0.21586 1.420803,0.32214 2.447749,0.12128 2.916519,-0.57082 0.293296,-0.43305 0.369306,-1.67034 0.112074,-1.82415 z m -6.149686,3.58852 c -0.147346,-0.002 -1.833703,3.89288 -1.819789,4.20246 0.0059,0.13185 2.244141,0.92078 3.202439,1.12891 1.553424,0.33736 2.642471,0.0571 3.099484,-0.79778 0.78564,-1.46973 -0.214361,-2.80229 -2.979649,-3.97026 -0.731321,-0.30889 -1.407429,-0.56269 -1.502485,-0.56333 z m -14.692668,7.07451 -0.223466,0.005 c 9.55e-4,0.003 0.0017,0.008 0.0026,0.0104 l 0.237643,0.017 c -0.0056,-0.0107 -0.01111,-0.0214 -0.01688,-0.032 z" /><g
       id="g103"
       transform="matrix(0.38456518,0,0,0.39048859,73.876474,-6.6890049)"
       style="fill:#d47000;fill-opacity:1"><path
         id="path55"
         style="fill:#d47000;fill-opacity:1"
         d="m 32.736503,326.25089 v 5.1e-4 0.001 10e-4 c -0.0073,-0.005 -0.05442,-10e-4 -0.10387,0.008 -0.02496,0.0391 -0.06982,0.0743 -0.129707,0.10387 l -5.17e-4,5.2e-4 c -0.01351,0.0227 -0.02512,0.0465 -0.03876,0.0739 -0.0465,0.0972 -0.108563,0.18321 -0.136943,0.28732 -0.03312,0.1213 -0.07857,0.23884 -0.105937,0.36173 -0.02066,0.0853 -0.02527,0.17315 -0.02997,0.26045 -0.0054,0.10582 -0.007,0.21188 -0.0083,0.31781 -0.0011,0.1009 -0.0014,0.20141 -0.0016,0.30231 0.0011,0.0393 -8.9e-5,0.079 -5.16e-4,0.11834 0.006,0.0215 0.01083,0.0428 0.01602,0.0646 0.0018,0.0274 0.115333,0.33878 0.05013,0.14986 0.06795,0.0697 0.135581,0.14104 0.204121,0.21084 0.09502,0.0921 0.171068,0.20034 0.267168,0.29094 0.07428,0.0681 0.148762,0.13952 0.223242,0.20412 0.104547,0.0696 0.20258,0.14771 0.29869,0.22841 0.09761,0.0812 0.199737,0.15953 0.304374,0.23151 0.136081,0.094 0.261388,0.20226 0.390674,0.30541 0.115853,0.09 0.23508,0.17805 0.356567,0.26045 0.119165,0.0675 0.210066,0.17161 0.327629,0.24081 0.132445,0.0734 0.251291,0.1672 0.375687,0.2527 0.124784,0.0638 0.232694,0.17704 0.363802,0.22634 0.186982,0.0774 0.339551,0.21132 0.499711,0.33073 0.116433,0.0858 0.22199,0.18437 0.335897,0.27337 0.0073,0.013 0.158195,0.0795 0.267167,0.14211 0.10789,0.0631 0.215367,0.12357 0.315227,0.19947 0.150136,0.11411 0.206577,0.21095 0.201021,0.29404 l 0.45837,0.23616 -0.08733,0.23306 c -0.04812,0.12805 -0.230159,0.63872 -0.404627,1.1343 l -0.317293,0.90072 0.504362,0.0124 c 0.277368,0.006 1.279157,0.1695 2.226221,0.36381 l 1.721858,0.35346 -0.337964,0.14831 c -0.83796,0.36751 -1.535079,0.77642 -1.737878,1.01958 l -0.220658,0.26458 0.74104,-0.31729 0.74104,-0.31729 1.107426,-0.01 1.106909,-0.0103 0.691947,0.39533 c 1.851955,1.05861 2.837553,2.93396 2.837553,5.4007 v 1.00666 l -0.285254,0.8015 c -0.34099,0.9589 -0.975551,2.0035 -1.21698,2.0035 -0.09548,0 -0.372604,0.24938 -0.615983,0.55448 l -0.44235,0.55501 -0.83044,0.41548 -0.830441,0.41548 -0.912089,0.0589 -0.912089,0.0589 -0.880566,-0.38551 c -0.484143,-0.21212 -0.897243,-0.36801 -0.917773,-0.34571 -0.02053,0.0223 0.09386,0.32738 0.253731,0.67799 0.567011,1.24361 2.027665,2.42725 3.033923,2.45825 l 0.439767,0.0129 0.245979,-0.35399 0.24598,-0.35346 0.237712,0.21394 0.237711,0.21394 1.159103,0.004 c 0.637622,0.002 1.159614,-0.0381 1.159619,-0.0894 6e-6,-0.0513 -0.438176,-0.1402 -0.973584,-0.1974 -1.019735,-0.10904 -1.794723,-0.33675 -1.794723,-0.5271 0,-0.22432 0.512218,-0.6065 1.114144,-0.83147 0.33876,-0.12664 0.756564,-0.30905 0.928109,-0.40515 l 0.311609,-0.17466 0.35295,0.35966 c 0.193973,0.19774 0.476153,0.66263 0.627352,1.03353 0.151199,0.37089 0.375573,0.79546 0.498677,0.9431 l 0.224276,0.2682 -0.817521,-0.0548 c -0.44955,-0.0303 -0.972965,-0.01 -1.163236,0.046 l -0.346233,0.10181 0.576709,0.3979 c 0.317111,0.21884 0.616643,0.46808 0.665593,0.55398 l 0.08888,0.15658 2.932638,-0.001 c 1.612997,-6.8e-4 3.472708,-0.0684 4.132047,-0.15038 1.295577,-0.1611 3.602065,-0.90674 3.940328,-1.27382 0.23712,-0.25732 0.835919,-0.2956 1.346171,-0.0842 l 0.345199,0.14211 0.520382,-0.44855 c 1.391719,-1.20016 2.300949,-2.53756 2.615344,-3.84732 0.39872,-1.66099 0.198288,-3.1507 -0.683679,-5.07462 l -0.482141,-1.0511 -1.030945,-1.28933 c -1.013553,-1.26745 -1.865102,-1.98692 -2.891297,-2.44377 -0.28542,-0.12702 -0.518831,-0.27874 -0.518831,-0.33694 0,-0.1462 6.227722,0.0674 7.334953,0.25167 0.49475,0.0823 1.21496,0.31509 1.600419,0.51728 l 0.701249,0.36742 -0.04496,1.16634 c -0.05509,1.43482 -0.148695,2.96881 -0.181385,2.96881 -0.0071,0 -0.01681,0.17324 -0.02636,0.27905 4.44e-4,0.0591 0.0028,0.11814 0.0031,0.17725 3.44e-4,0.0869 4.41e-4,0.17355 5.17e-4,0.26045 6.7e-5,0.0917 -8e-6,0.18323 0,0.27492 8e-6,0.0969 -10e-7,0.19404 0,0.29094 v 0.29507 l 0.0052,0.003 -0.0052,0.0625 v 0.21807 0.30438 0.24443 0.27233 0.30593 0.32246 0.30954 0.30747 0.30851 0.3576 0.30644 0.29249 0.29404 0.24391 0.25374 0.25321 0.14418 l 0.05323,-0.0357 -0.05323,0.108 v 0.13436 0.27544 0.21859 0.20567 0.20929 0.3235 0.26355 0.25424 0.25115 0.28112 0.23565 0.20928 0.20413 0.20309 0.20308 c 0.007,0.10231 -0.01264,0.20168 -0.03307,0.30128 -0.01354,0.0624 -0.02042,0.12605 -0.02532,0.18965 -0.0047,0.0631 -0.0056,0.12635 -0.0067,0.18965 -0.0012,0.0791 -0.0025,0.1581 -0.0026,0.2372 -1.92e-4,0.088 -4.84e-4,0.17606 -5.17e-4,0.26406 -2.6e-5,0.077 5e-6,0.154 0,0.231 -5e-6,0.0888 0,0.17733 0,0.26613 -0.0053,0.10354 0.02502,0.20351 0.05219,0.30231 0.03317,0.13058 0.0928,0.25178 0.144177,0.37569 0.04722,0.0777 0.04519,0.18304 0.09819,0.25734 0.04197,0.0451 0.04621,0.12187 0.08992,0.16537 0.0058,0.006 -0.0075,-0.0147 -0.01137,-0.0217 0.05766,0.0543 0.121943,0.15241 0.157613,0.20671 0.07018,0.0636 0.121282,0.14193 0.168982,0.22273 0.02326,0.0609 0.06139,0.11188 0.09664,0.16588 0.05775,0.0865 0.114486,0.17403 0.173116,0.25993 0.05012,0.0609 0.07809,0.13499 0.115755,0.20309 0.0031,0.005 -0.0067,-0.0121 -0.0052,-0.0181 8e-4,-0.003 0.0062,0.004 0.0083,0.007 0.01923,0.0253 0.0372,0.0513 0.05581,0.077 0.05841,0.0863 0.120689,0.16803 0.171049,0.25993 0.01227,0.0396 0.03123,0.0472 0.106453,0.15555 0.06884,0.0941 0.114934,0.20219 0.179834,0.29869 0.06409,0.0852 0.105814,0.18383 0.159164,0.27543 0.05003,0.0784 0.101989,0.15563 0.155029,0.23203 0.0615,0.0885 0.116509,0.18178 0.172599,0.27388 0.05574,0.0856 0.106117,0.17389 0.158647,0.26149 0.02517,0.0269 0.09606,0.12988 0.150378,0.19378 0.0134,0.0152 0.02716,0.0306 0.04083,0.0455 0.03578,0.0307 0.05491,0.0561 0.07803,0.0863 0.01681,0.0183 0.0338,0.0364 0.05013,0.0553 0.07784,0.10087 0.163893,0.19477 0.242363,0.29507 0.06007,0.0805 0.128889,0.15416 0.191719,0.23306 0.06568,0.075 0.123318,0.15542 0.179318,0.23772 0.01337,0.006 0.14861,0.22733 0.12454,0.17673 0.0449,0.0529 0.08313,0.1115 0.120923,0.17001 0.119715,0.12639 0.116202,0.15449 0.218591,0.27131 0.01469,0.0139 0.02378,0.025 0.03824,0.0372 0.09738,0.0858 0.191625,0.17467 0.298689,0.24857 0.104876,0.0602 0.202972,0.1311 0.303858,0.1974 0.05418,0.0296 0.0983,0.0729 0.145211,0.11214 0.0091,0.007 -0.01774,-0.0158 -0.02584,-0.0248 -0.01907,-0.0202 0.04781,0.0285 0.07131,0.0434 0.05807,0.0471 0.159642,0.12013 0.209806,0.19069 0.0676,0.0545 0.132473,0.11217 0.199988,0.16691 0.07504,0.0679 0.15731,0.12529 0.236678,0.18759 0.07369,0.0636 0.139356,0.13609 0.206706,0.20619 0.08291,0.0796 0.142578,0.17646 0.192236,0.27905 0.0033,0.007 0.0057,0.0114 0.0088,0.0181 l 0.02325,-0.0119 c 0.142913,-0.0737 0.115119,-0.002 0.02119,0.12402 0.168761,0.52659 -0.25906,0.83812 -0.587045,0.62012 -1.084754,1.09085 -3.352714,3.13017 -5.078759,4.4912 -0.763805,0.60227 -1.019863,0.35463 -0.505396,-0.48834 0.151237,-0.24778 0.274934,-0.59416 0.275436,-0.76998 l 5.16e-4,-0.31988 -0.417545,-0.18758 -0.417546,-0.18759 -0.483174,0.0863 c -0.265778,0.0468 -1.278021,0.5216 -2.249476,1.05627 -1.476678,0.81275 -2.608204,1.26712 -2.936771,1.17822 -0.03806,-0.0103 -0.256945,-1.59188 -0.486275,-3.51503 l -0.417029,-3.49746 -0.378788,-0.0465 -0.378789,-0.047 v 0.1602 c 0,0.0881 -0.04678,0.15081 -0.103869,0.13901 -0.05709,-0.0118 -0.308897,0.0631 -0.559656,0.16692 l -0.455786,0.18861 0.07648,0.62116 c 0.0422,0.34158 0.235937,1.93151 0.430465,3.5326 l 0.353466,2.91093 -0.14521,0.15761 c -0.07985,0.0871 -0.171996,0.12831 -0.205156,0.0925 -0.03316,-0.036 -0.221204,-1.38322 -0.418062,-2.99361 -0.19686,-1.61043 -0.394373,-3.18152 -0.438733,-3.49126 l -0.08062,-0.56276 h -0.209807 c -0.115464,0 -0.499569,0.15765 -0.853178,0.35037 -0.353582,0.19268 -0.728945,0.31912 -0.834057,0.28112 l -0.191203,-0.0703 0.09405,0.88315 c 0.0515,0.48542 0.271815,2.33503 0.489893,4.11086 0.218073,1.77584 0.432843,3.65536 0.476973,4.17597 l 0.0801,0.94671 -0.122473,-0.0827 c -0.06733,-0.0452 -0.152416,-0.33621 -0.189136,-0.64647 -0.298213,-2.51996 -1.101042,-8.38175 -1.156002,-8.44135 -0.03781,-0.041 -0.46589,0.0756 -0.951363,0.25942 -0.485499,0.18385 -0.980215,0.33435 -1.099158,0.33435 -0.270575,0 -0.286366,-0.30263 0.186552,3.47162 0.221317,1.7662 0.510188,4.10736 0.642338,5.20226 l 0.240296,1.9911 0.446484,0.2992 c 0.245445,0.16461 0.554841,0.29921 0.687296,0.29921 0.132482,0 0.737716,-0.44635 1.345138,-0.99167 l 1.104325,-0.99115 0.368453,0.37207 c 0.202581,0.2048 0.700987,0.48939 1.107426,0.63252 l 0.738973,0.26044 -0.150895,0.16382 -0.150895,0.1633 v 1.09399 1.09347 l 0.657324,0.36018 c 0.361568,0.19783 1.934475,0.9153 3.494877,1.59474 3.775592,1.64401 7.574515,3.51696 7.992277,3.94033 0.437372,0.44322 0.726571,1.0547 0.726571,1.53582 v 0.28629 c 0.03408,0.006 0.06935,0.0122 0.10852,0.0186 0.0057,9.4e-4 0.0092,0.11399 0.0098,0.12919 0.008,0.11433 -0.0071,0.22838 -0.02119,0.34158 -0.02414,0.17236 -0.06609,0.34177 -0.0987,0.51263 -0.01955,0.18061 -0.06649,0.35439 -0.120923,0.5271 -0.04606,0.14994 -0.115454,0.29051 -0.179834,0.43305 -0.06798,0.15287 -0.158997,0.29419 -0.244947,0.43719 -0.06976,0.10983 -0.140204,0.21838 -0.200504,0.33382 -0.06332,0.10602 -0.120223,0.21612 -0.191203,0.3173 -0.03522,0.0583 -0.07447,0.11425 -0.116272,0.16795 -0.053,0.0542 -0.102567,0.10688 -0.160197,0.15658 -0.09539,0.0734 -0.20511,0.12143 -0.318843,0.15813 -0.27412,0.0883 -0.461269,0.004 -0.522966,-0.12971 l -0.363802,0.13487 -1.345654,0.007 -1.346171,0.007 -2.011247,-0.678 c -1.106204,-0.37266 -2.805111,-1.01089 -3.774963,-1.41852 -0.96987,-0.40769 -3.66305,-1.53242 -5.984648,-2.49907 -2.321596,-0.96658 -6.681133,-2.83544 -9.687781,-4.15272 -3.006649,-1.31727 -5.653476,-2.41494 -5.881811,-2.43964 -0.228359,-0.0247 -0.565103,-0.0965 -0.748275,-0.15916 l -0.333313,-0.11369 0.113688,0.21135 c 0.06244,0.11626 0.221605,0.38087 0.353467,0.58808 0.07823,0.12294 0.102785,0.23821 0.150378,0.35812 0.149575,0.0596 0.293461,0.21901 0.371037,0.49454 0.005,0.0175 0.0096,0.0347 0.01447,0.0522 0.04062,0.13884 0.08226,0.27751 0.124024,0.41599 0.04447,0.15931 0.07323,0.32247 0.117822,0.48163 0.04011,0.12916 0.09104,0.25466 0.132292,0.38343 0.02547,0.0646 0.04526,0.12816 0.08888,0.18346 0.04413,0.056 0.07836,0.11074 0.105937,0.16381 0.104931,-0.0299 0.18976,-0.0496 0.322461,-0.0935 l 0.896586,-0.29663 0.07131,0.31626 c 0.03899,0.17435 0.112626,0.72301 0.163815,1.21853 0.0512,0.49558 0.118565,0.94684 0.149345,1.00304 0.05114,0.0933 0.203303,1.26764 0.414961,3.20187 0.04519,0.41298 0.09112,0.81487 0.101803,0.89297 0.01068,0.0782 -0.229878,0.24217 -0.534334,0.36432 l -0.553455,0.22169 -1.315165,0.008 -1.314649,0.008 -0.706933,-0.26406 c -0.69591,-0.2601 -1.179978,-0.68759 -1.340487,-1.18288 l -0.08165,-0.25218 -0.666109,-0.0889 c -0.0449,-0.006 -0.135374,-0.0366 -0.189136,-0.046 -0.121819,-0.0148 -0.243183,-0.033 -0.363802,-0.0563 -0.193946,-0.0405 -0.386563,-0.0862 -0.576709,-0.14211 -0.12179,-0.0241 -0.243202,-0.0379 -0.366385,-0.0537 -0.128608,-0.0227 -0.256268,-0.0508 -0.383956,-0.078 -0.154764,-0.008 -0.307884,-0.0357 -0.459921,-0.0661 l 0.07441,0.20929 h -0.24753 c -0.771666,0 -2.459377,-0.81453 -2.91145,-1.4056 -0.103353,-0.13513 -0.249959,-0.24598 -0.326078,-0.24598 H 27.707259 L 27.874174,380.9 c 0.09199,0.12028 0.121539,0.29944 0.06511,0.39842 l -0.102836,0.17984 0.133842,-0.0894 c 0.0736,-0.0494 0.316926,0.0821 0.540535,0.29197 0.418143,0.39244 1.235579,0.84872 1.793172,1.05575 0.04167,-0.005 0.08576,-0.008 0.132809,-0.008 0.02555,1.9e-4 0.05194,8.8e-4 0.07906,0.003 0.09751,0.007 0.195362,0.0138 0.291972,0.0294 0.186162,0.0328 0.365808,0.0851 0.534851,0.17157 0.148859,0.0667 0.299592,0.12952 0.449068,0.19482 0.125709,0.0541 0.256112,0.0976 0.381889,0.15193 0.217152,0.0846 0.435177,0.16788 0.648539,0.26148 0.159918,0.0767 0.318819,0.15803 0.471806,0.24753 0.404013,0.23641 0.454134,0.54775 0.295072,0.72192 l 0.02584,0.0558 c 0.178553,0.38165 0.550522,1.05712 0.826307,1.5012 l 0.282153,0.45424 c 0.165146,0.1268 0.34633,0.23315 0.505912,0.36793 0.151995,0.1142 0.306254,0.22516 0.449585,0.35037 0.09781,0.0848 0.189785,0.17603 0.288355,0.25993 0.134018,0.1155 0.272194,0.22648 0.402042,0.34675 0.159951,0.14009 0.330903,0.26776 0.484208,0.41548 0.08937,0.0832 0.187811,0.1596 0.250631,0.26665 0.0089,0.0147 0.01489,0.0293 0.02222,0.0439 0.154716,0.0821 0.318772,0.14267 0.482141,0.20464 0.147899,0.0502 0.285343,0.12597 0.432532,0.17777 0.104888,0.0371 0.212786,0.0637 0.31936,0.0951 0.146676,0.0379 0.291251,0.0723 0.431498,0.13126 0.07501,0.0398 0.14148,0.0966 0.195337,0.16382 0.05517,0.03 0.110284,0.0603 0.164848,0.0915 0.108415,0.0615 0.21183,0.13131 0.319361,0.19431 0.0105,0.006 0.02136,0.0122 0.03204,0.0181 0.07631,0.0183 0.216532,0.0475 0.218591,0.0801 6.28e-4,0.01 6.34e-4,0.0157 0.0016,0.0253 0.0134,0.006 0.02698,0.012 0.04031,0.0181 0.136559,0.0599 0.26893,0.12747 0.395842,0.20567 0.08239,0.0581 0.173882,0.10063 0.261482,0.14986 0.132349,0.0768 0.202857,0.14672 0.230994,0.23307 l 0.110588,0.0429 -0.09715,0.0202 c 0.01164,0.1198 -0.03797,0.27455 -0.112655,0.5116 -0.02201,0.0698 -0.300809,0.13052 -0.332279,0.13952 -0.381815,0.0603 -0.770759,0.0627 -1.156519,0.0729 -0.256569,0.006 -0.513353,0.0104 -0.769979,0.0134 -0.147999,0.002 -0.270297,-0.0225 -0.368453,-0.0636 -0.148321,3e-5 -0.29659,3.4e-4 -0.444934,0 -0.159478,0 -0.319049,-0.001 -0.478523,-0.002 -0.210826,-0.002 -0.421858,-0.004 -0.63252,-0.0134 -0.07833,0.0278 -0.155933,0.0575 -0.234611,0.0848 -0.157791,0.0614 -0.316444,0.12133 -0.47749,0.17363 -0.145638,0.0459 -0.2912,0.0911 -0.432015,0.1509 -0.13514,0.0469 -0.272407,0.0886 -0.410311,0.1266 -0.194341,0.0532 -0.384658,0.12198 -0.58446,0.15348 -0.294444,0.0577 -0.588487,0.1169 -0.88005,0.1881 -0.241837,0.0499 -0.486904,0.0856 -0.72037,0.1695 -0.23969,0.0703 -0.484264,0.13375 -0.734838,0.14625 -0.217442,0.0169 -0.43576,0.0371 -0.648023,0.0894 -0.188178,0.0465 -0.37567,0.1011 -0.559139,0.16278 -0.01105,0.004 -0.02253,0.007 -0.03359,0.0109 -0.08381,0.0688 -0.181295,0.11884 -0.276469,0.17105 -0.125642,0.0728 -0.260521,0.1273 -0.389123,0.1943 -0.120352,0.0695 -0.248175,0.1227 -0.380855,0.1633 -0.08788,0.0321 -0.186355,0.0434 -0.270785,0.0832 -0.1772,0.0694 -0.353602,0.14114 -0.528133,0.21704 -0.197679,0.0852 -0.399365,0.15958 -0.597896,0.24288 -0.16207,0.075 -0.331159,0.13124 -0.499711,0.18914 -0.131449,0.0472 -0.260541,0.10119 -0.392225,0.14779 -0.111351,0.0382 -0.221546,0.0817 -0.328145,0.13178 -0.144103,0.0777 -0.305546,0.10849 -0.460954,0.15399 -0.207567,0.0744 -0.422548,0.11888 -0.636653,0.16898 -0.18729,0.0499 -0.375149,0.098 -0.563273,0.1447 -0.207768,0.0515 -0.419042,0.0878 -0.629419,0.12712 -0.04685,0.009 -0.094,0.0145 -0.141077,0.0217 -0.09388,0.0354 -0.186742,0.0736 -0.282153,0.10491 -0.229952,0.0805 -0.457515,0.16781 -0.68678,0.25011 -0.144026,0.0506 -0.2897,0.0988 -0.42323,0.17415 -0.244493,0.12786 -0.491769,0.24802 -0.753959,0.33642 -0.348582,0.13427 -0.696169,0.27247 -1.054716,0.37878 -0.283145,0.0957 -0.558709,0.2123 -0.840259,0.31265 -0.213748,0.0789 -0.425632,0.15968 -0.63252,0.25528 -0.209963,0.0877 -0.422114,0.17261 -0.623734,0.27802 -0.184922,0.0987 -0.371844,0.19409 -0.553971,0.29765 -0.09707,0.0571 -0.196138,0.11085 -0.289388,0.17415 -0.11178,0.0715 -0.221662,0.14581 -0.33228,0.21911 -0.139976,0.0859 -0.284475,0.16366 -0.426847,0.24546 -0.16536,0.10047 -0.322758,0.21633 -0.501262,0.29353 -0.09993,0.0448 -0.201424,0.0828 -0.289904,0.14934 -0.09977,0.0655 -0.197916,0.13402 -0.29869,0.19792 -0.121956,0.0763 -0.250508,0.14039 -0.373104,0.21549 -0.120625,0.0747 -0.241129,0.14829 -0.364319,0.21859 -0.08111,0.0442 -0.166356,0.081 -0.241846,0.13488 -0.111651,0.0771 -0.224115,0.15109 -0.343648,0.21549 -0.156932,0.0975 -0.313494,0.19502 -0.475423,0.28422 -0.131168,0.0713 -0.268428,0.13193 -0.38809,0.22273 -0.10186,0.0623 -0.197144,0.10795 -0.286804,0.18965 -0.08538,0.0599 -0.173953,0.11445 -0.261483,0.17105 -0.09499,0.0537 -0.146029,0.17669 -0.257865,0.20929 -0.05882,0.0323 -0.104944,0.0804 -0.157614,0.12195 -0.06901,0.0537 -0.142562,0.10145 -0.208772,0.15865 -0.08238,0.0634 -0.171766,0.11847 -0.241846,0.19637 -0.08306,0.0851 -0.165621,0.17321 -0.270785,0.23151 -0.100769,0.059 -0.192135,0.13728 -0.30489,0.17518 -0.09757,0.035 -0.171427,0.12279 -0.264067,0.16795 -0.09945,0.0651 -0.188826,0.14457 -0.293005,0.20257 -0.05456,0.0328 -0.109482,0.0646 -0.151412,0.11317 -0.05998,0.0527 -0.101186,0.082 -0.153996,0.14573 -0.03771,0.0395 -0.07532,0.0795 -0.116272,0.11576 -0.0012,0.001 0.0012,-0.003 5.17e-4,-0.003 -0.05087,0.0759 -0.124124,0.15686 -0.140043,0.17931 -0.0507,0.0664 -0.09389,0.12051 -0.129192,0.20361 -0.07176,0.11529 -0.14976,0.22648 -0.21549,0.34571 -0.07841,0.12089 -0.161436,0.23939 -0.261483,0.34365 -0.0717,0.0603 -0.132199,0.20167 -0.225309,0.25477 -0.0051,0.005 -0.0094,0.0102 -0.01447,0.015 -0.0134,0.0745 -0.02273,0.14748 -0.06098,0.23306 -0.08175,0.18289 -0.168636,0.36324 -0.260966,0.54106 -0.1264119,0.24225 -0.257192,0.48263 -0.3927407,0.71985 -0.1321708,0.23258 -0.2447189,0.47405 -0.3601848,0.7152 -0.081512,0.16384 -0.1634798,0.32738 -0.2464965,0.49041 -0.00645,0.0659 -0.018074,0.13518 -0.041858,0.21136 -0.039986,0.12807 -0.058947,0.26089 -0.073897,0.39377 -0.020365,0.18613 -0.022218,0.37366 -0.025838,0.56069 -0.00374,0.21524 -0.00477,0.43069 -0.00568,0.64596 -5.686e-4,0.14018 -9.144e-4,0.28046 -0.00103,0.42064 -1.028e-4,0.0974 1.62e-5,0.19457 0,0.29197 -1.58e-5,0.11788 2.4e-6,0.23559 0,0.35347 0.00637,0.13494 -0.00641,0.26829 -0.029972,0.40101 -0.015999,0.0727 -0.023492,0.14604 -0.028422,0.22014 -0.00524,0.0865 -0.00652,0.17333 -0.00775,0.25993 -0.00119,0.0884 -0.00138,0.1767 -0.00155,0.2651 -1.923e-4,0.13787 3.31e-5,0.27606 0,0.41393 -0.00406,0.12435 0.028116,0.24545 0.05271,0.36639 0.060789,0.30859 0.084902,0.37919 -0.044442,0.40514 0.036051,0.1701 0.070286,0.3408 0.100769,0.51212 0.059977,0.224 0.1154461,0.44845 0.1581299,0.67644 0.035867,0.18302 0.081912,0.36346 0.1188558,0.54622 0.00205,0.004 0.00363,0.009 0.00568,0.0129 0.097555,0.19546 0.1965624,0.39022 0.3033407,0.58084 0.084433,0.17155 0.1588363,0.34703 0.2299601,0.52452 0.060243,0.13482 0.1166823,0.27181 0.2020545,0.39326 0.06686,0.11196 0.145153,0.21591 0.209807,0.32917 0.04133,-0.005 0.0739,0.008 0.0739,0.0574 0,0.0215 0.124569,0.15404 0.162781,0.21291 0.08272,0.0951 0.16564,0.19003 0.248047,0.28526 0.0509,0.0704 0.106758,0.13642 0.164848,0.20102 0.08013,0.0772 0.149904,0.16341 0.235644,0.23461 0.09442,0.0808 0.195125,0.15396 0.288355,0.23616 0.09658,0.0927 0.193471,0.18483 0.291971,0.27543 0.06825,0.0651 0.126321,0.13828 0.197921,0.19948 0.02603,0.025 0.04776,0.05 0.06976,0.0739 l 0.02377,0.01 -0.0026,0.0119 c 0.02464,0.0264 0.04898,0.0523 0.07803,0.076 0.07553,0.0644 0.152504,0.12782 0.216524,0.20412 0.07845,0.0716 0.150765,0.14931 0.218075,0.23151 0.08962,0.0751 0.182119,0.14656 0.279569,0.21136 0.12761,0.0854 0.251738,0.17586 0.385507,0.25166 0.111999,0.0697 0.227673,0.13226 0.339514,0.20206 0.08024,0.0619 0.177329,0.10168 0.252697,0.17208 0.05829,0.0424 0.118847,0.0816 0.177767,0.12299 0.09652,0.0454 0.192254,0.0937 0.283704,0.14831 0.120913,0.0414 0.235931,0.0969 0.3514,0.15142 0.154049,0.0846 0.301286,0.17973 0.450618,0.27233 0.147815,0.10174 0.274032,0.22349 0.374654,0.36845 0.07645,0.0266 0.147836,0.0677 0.216525,0.11628 0.103389,0.073 0.179933,0.1505 0.234094,0.22892 0.357683,0.0163 0.557987,0.17966 0.600997,0.3607 0.02698,0.0177 0.05497,0.0343 0.08216,0.0517 0.08754,0.0529 0.163154,0.1223 0.250114,0.1757 0.0045,0.003 0.0085,0.005 0.01292,0.008 l 0.01499,-0.0253 5.17e-4,0.0341 c 0.06715,0.0437 0.126902,0.0676 0.216008,0.11782 0.102244,0.0651 0.20347,0.1318 0.30334,0.20051 l 0.08217,-0.0238 -0.03101,0.0548 c 0.05829,0.0343 0.120863,0.0594 0.181384,0.0899 0.01865,0.009 0.03392,0.0227 0.05116,0.0336 l 0.03152,-0.0124 v 0.0341 c 0.06775,0.0482 0.131433,0.10251 0.204122,0.14056 0.09688,0.0336 0.184352,0.089 0.275952,0.13435 0.07246,0.0277 0.144214,0.0563 0.218074,0.0801 0.109755,0.0269 0.203294,0.0921 0.305925,0.13436 0.0883,0.0398 0.170589,0.0906 0.261999,0.12248 0.09065,0.0413 0.179245,0.0854 0.272335,0.12092 0.129505,0.0469 0.260889,0.084 0.38654,0.14107 0.07174,0.0374 0.141878,0.0769 0.219108,0.10129 0.08758,0.0364 0.176196,0.0697 0.264066,0.10542 0.07289,0.0408 0.146093,0.0715 0.226343,0.0925 0.109355,0.0344 0.22005,0.0651 0.328662,0.1018 0.176899,0.0596 0.345491,0.13885 0.513147,0.22015 0.104713,0.0467 0.208717,0.0948 0.318327,0.12867 0.14018,0.04 0.277306,0.0897 0.418062,0.12764 0.136861,0.0248 0.267828,0.0687 0.396359,0.12092 0.12048,0.0352 0.238082,0.078 0.355017,0.12351 0.140503,0.0581 0.281966,0.11228 0.415995,0.18448 0.121662,0.0374 0.241429,0.0793 0.364836,0.11111 0.209362,0.0722 0.413472,0.15901 0.61805,0.24391 0.128897,0.0537 0.243413,0.13729 0.377754,0.17519 0.192514,0.066 0.386415,0.12733 0.580327,0.18913 0.165234,0.055 0.319057,0.13749 0.478524,0.20619 0.109858,0.0464 0.221646,0.0874 0.333829,0.12712 l 0.101803,-0.004 -0.0031,0.0377 c 0.111076,0.0372 0.223314,0.0707 0.336414,0.1018 l 5.17e-4,5.2e-4 c 0.01268,0.003 0.02502,0.008 0.03772,0.0119 0.119472,0.0375 0.241554,0.0649 0.362769,0.0956 0.074,6.6e-4 0.306767,0.0651 0.544153,0.13125 0.176679,0.0391 0.353203,0.0788 0.5302,0.11731 0.2263,0.0633 0.456992,0.10685 0.687297,0.15245 0.271867,0.0734 0.548975,0.12503 0.823722,0.18603 0.219551,0.0567 0.44062,0.105 0.661975,0.154 0.166065,0.03 0.329151,0.0738 0.492993,0.11368 0.268121,0.0235 0.534763,0.0574 0.800468,0.10026 0.300721,0.0557 0.600851,0.11356 0.902787,0.16226 0.243245,0.0245 0.483742,0.0625 0.722954,0.11266 0.232929,0.0502 0.468831,0.0832 0.705383,0.11058 0.138426,0.0167 0.277258,0.0239 0.416512,0.0279 0.183647,0.004 0.367701,0.004 0.551388,0.005 0.24074,-0.0115 0.476834,0.037 0.71055,0.0884 0.151551,0.0346 0.303209,0.0674 0.45682,0.0915 0.159197,0.0113 0.316449,0.0272 0.473873,0.0553 0.212043,0.0322 0.422417,0.0751 0.633036,0.11524 0.156548,0.0264 0.312049,0.0576 0.469222,0.0801 0.239196,0.036 0.476632,0.0812 0.712102,0.13643 0.143348,0.0349 0.286807,0.0669 0.433048,0.0868 0.165905,0.0249 0.326183,0.0735 0.491443,0.10128 0.215615,0.0518 0.431369,0.10128 0.649573,0.14108 0.116989,0.0217 0.234814,0.0354 0.353466,0.0424 0.182473,0.0216 0.364995,0.0417 0.548287,0.0548 0.167661,0.0119 0.335816,0.0161 0.503846,0.0191 0.207248,0.003 0.414389,0.003 0.621667,0.004 0.155142,4.2e-4 0.310462,10e-4 0.465605,10e-4 0.126179,7e-5 0.252609,-10e-6 0.378788,0 0.135217,10e-6 0.270443,-10e-6 0.40566,0 h 0.49506 c 0.291043,0 0.482401,0.0991 0.578776,0.22996 0.827418,0.0311 2.067233,0.065 3.256649,0.0765 l 2.527494,0.0248 0.03204,0.13797 h 0.112138 c 0.0041,-1.5e-4 0.0083,1.3e-4 0.0124,0 -0.002,-0.01 -0.02222,-0.0304 -0.02222,-0.0382 v -0.13952 l 1.972489,-0.016 c 1.08468,-0.009 2.408094,-0.047 2.940906,-0.0827 0.532837,-0.0355 1.466887,-0.096 2.075843,-0.13487 0.397536,-0.0253 0.74318,-0.0532 1.106909,-0.0811 0.125756,-0.0816 0.2622,-0.1468 0.402042,-0.20412 0.208531,-0.0855 0.429885,-0.11776 0.652674,-0.13746 0.261135,-0.0172 0.522844,-0.0187 0.784448,-0.0217 0.255451,-0.0184 0.510234,-0.0445 0.763778,-0.0806 0.223636,-0.0332 0.447859,-0.0632 0.672827,-0.0858 0.08567,-0.024 0.171131,-0.0453 0.255281,-0.0744 0.212166,-0.0777 0.438,-0.0988 0.661459,-0.11731 0.239,-0.003 0.474492,-0.0292 0.708484,-0.0765 0.23708,-0.0394 0.470649,-0.094 0.702799,-0.15554 0.234085,-0.0668 0.473347,-0.1094 0.714685,-0.1385 0.163718,-0.0179 0.319136,-0.0717 0.476457,-0.1173 0.242939,-0.0591 0.492346,-0.0784 0.74104,-0.0951 0.196457,-0.008 0.391991,-0.0132 0.587561,-0.0336 0.04773,4.5e-4 0.0923,-0.0113 0.138493,-0.0165 0.102085,-0.23173 0.393185,-0.4292 0.879016,-0.44855 0.177688,-0.007 0.353614,-0.0501 0.529166,-0.0786 0.273464,-0.0343 0.541418,-0.0994 0.80977,-0.1602 0.221404,-0.0517 0.443053,-0.10408 0.663526,-0.15968 0.247809,-0.0707 0.49532,-0.13792 0.749308,-0.18242 0.204384,-0.0305 0.41028,-0.0638 0.610299,-0.11679 0.158526,-0.0383 0.314217,-0.0792 0.468188,-0.1328 0.247702,-0.0891 0.507968,-0.13602 0.763261,-0.19792 0.23214,-0.0529 0.461825,-0.11362 0.691431,-0.17622 0.138856,-0.0307 0.273938,-0.068 0.40876,-0.11214 0.131824,-0.0514 0.264402,-0.0999 0.401526,-0.13849 0.243581,-0.058 0.489774,-0.10813 0.735872,-0.15503 0.183304,-0.0168 0.351585,-0.0849 0.523483,-0.14366 0.171811,-0.0507 0.344378,-0.0997 0.517798,-0.1447 0.151257,-0.0528 0.317986,-0.0441 0.470772,-0.0858 0.125227,-0.0424 0.251272,-0.0872 0.378788,-0.12609 0.183953,-0.0423 0.356811,-0.11137 0.533818,-0.17467 0.17416,-0.0517 0.341555,-0.11902 0.504878,-0.19792 0.173897,-0.0822 0.354089,-0.15184 0.532784,-0.22324 0.131646,-0.0596 0.274498,-0.0943 0.40566,-0.15399 0.144067,-0.0661 0.293111,-0.12064 0.434599,-0.19224 0.133438,-0.076 0.282331,-0.13422 0.42013,-0.19172 0.118409,-0.0768 0.23731,-0.15214 0.361218,-0.22014 0.156261,-0.0937 0.332576,-0.14213 0.498677,-0.21343 0.179674,-0.097 0.386619,-0.1297 0.571025,-0.2129 0.100176,-0.0413 0.195832,-0.0893 0.290422,-0.1416 0.165804,-0.10275 0.354954,-0.14813 0.538985,-0.20463 0.125019,-0.0398 0.23671,-0.11017 0.355534,-0.16537 0.19815,-0.0746 0.390825,-0.16214 0.590661,-0.23254 0.135909,-0.0367 0.263257,-0.0913 0.388607,-0.154 0.173423,-0.0889 0.345682,-0.18035 0.521932,-0.26355 0.09893,-0.0793 0.445865,-0.14096 0.521415,-0.21756 0.152849,-0.1102 0.331183,-0.17293 0.500745,-0.25063 0.110866,-0.0505 0.224111,-0.0848 0.330212,-0.14314 0.107097,-0.0669 0.21749,-0.12849 0.325562,-0.19379 0.12715,-0.0756 0.259145,-0.14382 0.392741,-0.20722 0.137278,-0.0533 0.271368,-0.11435 0.394291,-0.19585 0.129646,-0.0795 0.254653,-0.16555 0.382405,-0.24805 0.145478,-0.0991 0.309077,-0.16395 0.465605,-0.24185 0.100641,-0.0399 0.18105,-0.10143 0.26665,-0.16433 0.103582,-0.0789 0.230195,-0.16794 0.323495,-0.23254 0.139146,-0.12173 0.28047,-0.24172 0.425814,-0.35605 0.180938,-0.13525 0.358895,-0.2745 0.542085,-0.4067 0.08364,-0.0574 0.168334,-0.11321 0.252698,-0.16949 0.351804,-0.38591 0.705541,-0.79434 1.022677,-1.22629 1.400581,-1.90761 3.27399,-3.30572 3.251998,-6.76599 -0.02199,-3.46026 -0.259439,-5.65811 -2.756421,-8.31681 -2.496983,-2.65871 -5.111632,-3.55627 -5.21932,-3.63027 -0.16478,-0.10216 -0.334042,-0.20025 -0.479557,-0.32969 -0.05588,-0.0526 -0.109824,-0.10741 -0.15813,-0.16692 -0.02884,-0.0119 -0.0573,-0.0246 -0.0863,-0.0362 -0.141534,-0.059 -0.286093,-0.11013 -0.424263,-0.17673 -0.131907,-0.0637 -0.262348,-0.13071 -0.383956,-0.21291 -0.160526,-0.10412 -0.318876,-0.21142 -0.487309,-0.30282 -0.150915,-0.0854 -0.304568,-0.16496 -0.465605,-0.22996 -0.115326,-0.0511 -0.230388,-0.10238 -0.345715,-0.15348 -0.126356,-0.0602 -0.250534,-0.12542 -0.384989,-0.16692 -0.140836,-0.0518 -0.281619,-0.10231 -0.427364,-0.13901 -0.136105,-0.0378 -0.273282,-0.0706 -0.411862,-0.0982 -0.134815,-0.0332 -0.270781,-0.0683 -0.399458,-0.12093 -0.0022,-10e-4 -0.0045,-0.002 -0.0067,-0.003 -0.0099,-7.3e-4 -0.01938,2.2e-4 -0.02946,-0.002 -0.08208,-0.008 -0.163786,-0.0207 -0.243396,-0.0429 -0.05132,-0.0143 -0.04522,-0.0124 -0.09302,-0.0279 -0.01603,-0.005 -0.03167,-0.01 -0.04754,-0.0155 -0.0031,-0.001 -0.0125,-0.003 -0.0093,-0.004 0.0088,-0.002 0.03629,0.002 0.02739,0 -0.01171,-0.002 -0.02378,-6.2e-4 -0.03566,-0.002 -0.09031,-0.006 -0.180511,-0.0163 -0.2682,-0.0398 -0.133484,-0.0352 -0.263354,-0.0818 -0.390157,-0.13642 -0.159769,-0.0668 -0.318622,-0.13652 -0.480591,-0.19792 -0.08836,-0.0361 -0.17529,-0.0752 -0.26045,-0.11834 0.02344,-0.003 0.0097,-5.2e-4 -0.03411,-0.008 -0.0772,-0.0138 -0.153627,-0.0324 -0.228927,-0.0543 -0.184905,-0.0544 -0.366579,-0.11925 -0.548287,-0.18345 -0.13936,-0.0491 -0.278583,-0.098 -0.418579,-0.14521 -0.08233,-0.0302 -0.172532,-0.0408 -0.249597,-0.0863 -0.08499,-0.0396 -0.182631,-0.0434 -0.2682,-0.0822 -0.110594,-0.0416 -0.219016,-0.0886 -0.332797,-0.12144 -0.114343,-0.0359 -0.232514,-0.06 -0.343648,-0.10645 -0.210523,-0.0709 -0.422452,-0.13724 -0.629936,-0.21704 -0.231314,-0.0821 -0.463672,-0.16145 -0.695564,-0.24185 -0.10731,-0.0386 -0.212979,-0.0923 -0.327629,-0.10335 -0.183065,-0.024 -0.36521,-0.0536 -0.545186,-0.0951 -0.143365,-0.0352 -0.28534,-0.078 -0.424781,-0.1266 -0.114303,-0.0411 -0.225804,-0.0885 -0.340031,-0.12971 -0.149652,-0.0572 -0.297501,-0.1187 -0.449585,-0.1695 -0.118881,-0.0425 -0.241289,-0.071 -0.366385,-0.0889 -0.259605,-0.0465 -0.517709,-0.0996 -0.778764,-0.13746 -0.510505,-0.0821 -1.020042,-0.17135 -1.529623,-0.2589 -0.3634,-0.0643 -0.730808,-0.11874 -1.089339,-0.20722 l -0.07441,0.0155 0.01602,-0.0284 c -0.0057,-10e-4 -0.01139,-0.003 -0.01705,-0.004 -0.107104,-0.0371 -0.208059,-0.0871 -0.31316,-0.12919 -0.112353,-0.0451 -0.224464,-0.0917 -0.338997,-0.13126 l -0.242879,-0.007 c -0.575038,-0.0176 -1.095716,-0.0865 -1.157036,-0.15297 -0.06132,-0.0665 -0.141337,-0.43499 -0.177767,-0.81855 l -0.06615,-0.69712 0.148311,-0.0615 c 0.0035,-0.0492 0.01041,-0.0983 0.01912,-0.14831 0.03681,-0.11595 0.111113,-0.20956 0.195337,-0.29456 0.06664,-0.0605 0.140305,-0.11168 0.218075,-0.15658 0.08211,-0.0464 0.172006,-0.0722 0.264066,-0.0894 0.03827,-0.01 0.07928,-0.005 0.117823,-0.0124 0.0043,-0.001 -0.01664,7.9e-4 -0.01344,-0.002 0.02007,-0.0179 0.05171,-0.0168 0.07751,-0.0248 0.09257,-0.0242 0.176777,-0.0686 0.262517,-0.10956 0.06735,-0.0302 0.131053,-0.0682 0.195853,-0.10335 0.02534,-0.0143 0.05129,-0.0274 0.07752,-0.0398 0.02798,-0.0239 0.0484,-0.0552 0.07545,-0.0801 0.03447,-0.0347 0.07838,-0.0548 0.08578,-0.076 0.03418,-0.0584 0.07102,-0.11442 0.114205,-0.16692 0.05902,-0.0729 0.130606,-0.13245 0.206706,-0.18655 0.0586,-0.0358 0.106129,-0.0867 0.155029,-0.13436 0.05835,-0.0579 0.115791,-0.11686 0.177251,-0.17156 0.06591,-0.0574 0.144086,-0.0963 0.211356,-0.15193 0.09998,-0.0915 0.215785,-0.16195 0.328662,-0.23565 0.135257,-0.0923 0.277585,-0.17278 0.420646,-0.25218 0.02351,-0.0136 0.04752,-0.0266 0.07131,-0.0398 l 1.074353,-1.16685 0.438216,-0.97617 c 0.538421,-1.19849 1.110083,-2.55959 1.289327,-3.07113 0.0094,-0.0269 0.02755,-0.0449 0.03927,-0.0703 7.4e-5,-8.7e-4 4.45e-4,-0.002 5.17e-4,-0.003 0.01443,-0.0962 0.03698,-0.19026 0.05633,-0.28526 0.02396,-0.13468 0.05418,-0.26815 0.07958,-0.40256 0.02559,-0.11918 0.05632,-0.2369 0.09043,-0.35398 0.008,-0.0265 0.0131,-0.0457 0.0217,-0.0708 0.003,-0.009 0.0024,-0.0349 0.0083,-0.0279 5.89e-4,7.4e-4 2.42e-4,0.002 5.17e-4,0.003 0,-0.18321 0.05373,-0.31141 0.129708,-0.38551 0.09355,-0.50276 0.176656,-1.08561 0.188102,-1.53014 0.0058,-0.22712 0.05015,-0.41289 0.0987,-0.41289 0.04855,0 0.07391,-0.24013 0.05581,-0.5333 l -0.03307,-0.5333 0.03876,0.016 v -0.0284 -0.23823 -0.26149 -0.31109 -0.47542 c 10e-7,-0.21038 -4e-6,-0.4206 0,-0.63097 4e-6,-0.14472 4.63e-4,-0.28936 5.17e-4,-0.43408 1.3e-5,-0.0174 -9e-6,-0.0215 0,-0.0305 -4.5e-5,-0.009 4e-5,-0.0138 0,-0.0212 -4.36e-4,-0.0804 0.0046,-0.0965 0.05736,-0.0863 v -0.18965 h 0.133842 v -0.1478 c -0.0011,-0.0367 0.0017,-0.0731 0.0057,-0.10955 l -0.03617,-0.0279 0.06305,-0.17622 c 0.005,-0.0448 0.0091,-0.0898 0.01085,-0.13488 0.0028,-0.10334 0.04336,-0.19982 0.06563,-0.29972 0.01417,-0.0861 0.03129,-0.17165 0.04754,-0.25735 0.01871,-0.0982 0.04121,-0.19524 0.05684,-0.29404 0.0094,-0.0906 0.02362,-0.18023 0.04341,-0.26923 0.01492,-0.0646 0.01973,-0.13097 0.02997,-0.19637 0.0059,-0.0367 0.01323,-0.0732 0.02015,-0.10956 l -0.0088,-0.005 0.09509,-0.38396 c 0.0062,-0.0457 0.0113,-0.0918 0.0155,-0.13798 0.0067,-0.13003 0.01724,-0.25931 0.03669,-0.38809 0.01231,-0.0689 0.02011,-0.13793 0.02481,-0.20773 0.0057,-0.0916 0.0252,-0.18251 0.04754,-0.27131 0.03283,-0.094 0.05495,-0.1903 0.07906,-0.2868 0.02651,-0.0906 0.04268,-0.18339 0.05426,-0.27699 0.01261,-0.0988 0.03169,-0.19738 0.05323,-0.29455 0.02996,-0.11201 0.05481,-0.22525 0.07441,-0.33952 0.01149,-0.0944 0.02824,-0.18695 0.05168,-0.27905 0.0026,-0.01 0.0057,-0.0204 0.0083,-0.0305 0.05058,-0.19963 0.151885,-0.31435 0.258382,-0.3576 0.05728,-0.15533 0.08603,-0.28327 0.176217,-0.46819 l 0.277502,-0.56844 -0.0062,-0.94568 c -0.0037,-0.51984 -0.06961,-1.12492 -0.146761,-1.34513 -0.07716,-0.2202 -0.09894,-0.4005 -0.04754,-0.4005 0.0514,0 0.01848,-0.0812 -0.07286,-0.18035 -0.09134,-0.0991 -0.165882,-0.30194 -0.165882,-0.45062 0,-0.14863 -0.08852,-0.26975 -0.196887,-0.26975 H 73.70868 l 0.05271,0.89452 0.05323,0.89452 -0.488859,0.63407 c -0.268493,0.34873 -0.60442,0.87564 -0.746725,1.17047 -0.282483,0.58525 -1.04533,1.51205 -1.244368,1.51205 -0.0686,0 -0.311289,-0.29358 -0.538985,-0.65267 -0.392284,-0.61869 -1.120862,-1.29312 -1.120862,-1.03714 0,0.0655 -0.389842,0.11995 -0.86558,0.12195 -0.475732,0.002 -0.954359,0.0327 -1.064018,0.0708 l -0.199471,0.0708 -0.04858,-0.30076 c -0.02651,-0.16517 -0.08238,-0.46892 -0.124023,-0.67541 l -0.07545,-0.37569 -0.202572,0.41755 c -0.211922,0.43735 -0.372299,0.42742 -0.600997,-0.0367 l -0.136942,-0.27802 0.54622,-0.29249 c 0.300516,-0.16131 0.564271,-0.2463 0.586011,-0.1881 0.02174,0.0582 0.300844,0.15002 0.620117,0.20412 l 0.580326,0.0987 0.827857,-0.74879 c 0.131168,-0.11842 0.191746,-0.1884 0.267683,-0.26975 -0.01791,-0.0879 -0.0452,-0.17381 -0.06821,-0.26045 -0.02033,-0.0831 -0.052,-0.16378 -0.07545,-0.24598 -0.02093,-0.0736 -0.03102,-0.14883 -0.03772,-0.22479 -0.0049,-0.0655 -0.0053,-0.13068 -0.0062,-0.19638 -7.29e-4,-0.0651 -10e-4,-0.13026 -10e-4,-0.19533 -7.9e-5,-0.0598 -2.6e-5,-0.11954 0,-0.17932 l -0.07545,-0.19275 0.08837,-0.0863 c 0.03977,-0.21284 0.168398,-0.32039 0.297656,-0.3204 0.0076,0 0.01513,4.4e-4 0.02274,10e-4 l 0.518315,-0.51573 c 0.509883,-0.50699 1.000473,-0.92139 1.090373,-0.92139 0.0899,0 0.302675,0.16009 0.472322,0.35605 l 0.163815,0.18862 c 0.02615,-10e-4 0.05188,-3.5e-4 0.07596,0.006 0.016,-0.0235 0.03296,-0.0452 0.05013,-0.0682 0.05543,-0.0694 0.123516,-0.11533 0.197921,-0.13591 0.02084,-0.0995 0.0397,-0.20002 0.05736,-0.30024 -0.05226,-0.0832 -0.0926,-0.52756 -0.08268,-1.17254 0.0088,-0.57298 0.05536,-0.97839 0.107487,-1.13843 -0.03678,-0.02 -0.01782,-0.0334 0.0052,-0.0212 0.0088,-0.0229 0.01577,-0.0986 0.0248,-0.1018 0.0011,-0.0606 10e-4,-0.12121 -0.0083,-0.18087 -0.0016,-0.009 -0.0026,-0.0188 -0.0041,-0.0279 -0.128,-0.0802 -0.286911,-0.16868 -0.280086,-0.21291 0.0071,-0.0458 0.0036,-0.14172 0.0015,-0.22789 -0.06203,-0.0497 -0.122002,-0.10161 -0.180867,-0.15503 l -0.04238,0.0372 c -0.11418,0.1028 -0.207739,0.14299 -0.207739,0.0894 0,-0.0533 -0.144534,0.005 -0.320911,0.13074 l -0.320394,0.2279 -0.240812,-0.54777 -0.06305,-0.14315 c -0.0092,-0.008 -0.01825,-0.0142 -0.02739,-0.0217 -0.08876,-0.0923 -0.163511,-0.1911 -0.237195,-0.29507 -0.08284,-0.10706 -0.160003,-0.21814 -0.227893,-0.33538 -0.06503,-0.10495 -0.143067,-0.20015 -0.211357,-0.30283 -0.06739,-0.10409 -0.152035,-0.1979 -0.203605,-0.31212 -0.06169,-0.11529 -0.134411,-0.22507 -0.199471,-0.33848 -0.0643,-0.11264 -0.116733,-0.23228 -0.189653,-0.33952 -0.0864,-0.11868 -0.181114,-0.23159 -0.253214,-0.36018 -0.07971,-0.13602 -0.15319,-0.2759 -0.21239,-0.4222 -0.02829,-0.0677 -0.05208,-0.1375 -0.0832,-0.2036 -0.05865,-0.10722 -0.129123,-0.20849 -0.172083,-0.32401 -0.06607,-0.14279 -0.145362,-0.27925 -0.205672,-0.42479 -0.04267,-0.0934 -0.08689,-0.1868 -0.145728,-0.2713 -0.07283,-0.11732 -0.133784,-0.24148 -0.204121,-0.36018 -0.0021,-0.004 -0.0041,-0.007 -0.0062,-0.0124 -0.14938,-0.0621 -0.292455,-0.22363 -0.367936,-0.50437 -0.01853,-0.0689 -0.0297,-0.13913 -0.04134,-0.20929 -0.0037,-0.007 -0.0077,-0.012 -0.01137,-0.0186 -0.07148,-0.12347 -0.141234,-0.24727 -0.200504,-0.37724 -0.06435,-0.1359 -0.118544,-0.27642 -0.176734,-0.41496 -0.06568,-0.18512 -0.113588,-0.37601 -0.150378,-0.56896 -0.02306,-0.14216 -0.04124,-0.28506 -0.03514,-0.42943 5e-6,-0.0803 4.9e-4,-0.16054 5.17e-4,-0.24081 3.5e-5,-0.0959 -1.87e-4,-0.19194 0,-0.28784 2e-4,-0.11609 2.16e-4,-0.23221 0.0015,-0.3483 0.0015,-0.14886 0.0031,-0.29823 0.0093,-0.447 0.0067,-0.13858 0.0173,-0.27636 0.03979,-0.41341 0.01763,-0.12161 0.0289,-0.24261 0.02791,-0.36587 0.0087,-0.1581 0.02399,-0.31644 0.04909,-0.47284 0.03179,-0.18358 0.07753,-0.36372 0.114722,-0.54622 0.03589,-0.19541 0.06135,-0.39347 0.104903,-0.58756 0.0391,-0.23829 0.0266,-0.4824 0.07286,-0.72037 0.03355,-0.20378 0.07509,-0.40742 0.125057,-0.60771 0.02821,-0.10406 0.05113,-0.20726 0.05943,-0.31523 0.02064,-0.11277 -0.0081,-0.23294 0.0036,-0.34675 6.2e-5,-0.16199 1.61e-4,-0.32533 5.17e-4,-0.48731 4e-4,-0.12875 8.12e-4,-0.25678 0.0031,-0.3855 0.0024,-0.10306 0.007,-0.20635 0.01654,-0.30903 0.01066,-0.11224 0.02517,-0.22419 0.04393,-0.33538 0.02042,-0.0967 -0.0075,-0.20069 0.0036,-0.29869 v -0.31006 -0.25683 -0.31781 c -10e-7,-0.12976 3e-6,-0.25988 0,-0.38964 -5e-6,-0.17607 2.4e-5,-0.35258 0,-0.52865 -2.8e-5,-0.17739 -2.98e-4,-0.3544 -5.16e-4,-0.53175 -2e-4,-0.11495 1.88e-4,-0.23023 -0.0016,-0.3452 -0.0013,-0.11594 -0.0032,-0.23246 -0.0083,-0.3483 -0.0063,-0.13104 -0.0158,-0.26092 -0.03152,-0.39119 -0.01585,-0.13093 -0.03338,-0.262 -0.02635,-0.39429 v -0.36587 c -2e-6,-0.19365 5e-6,-0.38616 0,-0.57981 -6e-6,-0.18595 4.9e-5,-0.37268 0,-0.55862 -4.1e-5,-0.11843 -1.72e-4,-0.2366 -5.16e-4,-0.35502 -3e-4,-0.10906 -5.5e-4,-0.21804 -0.0026,-0.32711 -0.002,-0.12778 -0.0036,-0.25595 -0.01292,-0.38344 -0.01196,-0.14699 -0.03283,-0.29377 -0.05684,-0.43925 -0.0319,-0.1893 -0.0732,-0.37673 -0.08837,-0.56844 -0.01694,-0.16366 -0.04445,-0.32534 -0.08113,-0.48576 -0.04572,-0.22669 -0.0879,-0.45445 -0.131258,-0.68161 -0.03831,-0.20673 -0.07427,-0.4142 -0.117822,-0.6196 -0.04763,-0.18558 -0.09923,-0.37043 -0.14056,-0.55759 -0.02623,-0.11726 -0.04994,-0.23441 -0.08372,-0.34985 -0.03013,-0.11121 -0.07511,-0.21717 -0.113688,-0.32556 -0.0308,-0.0978 -0.05639,-0.19789 -0.08268,-0.29714 -0.04596,-0.0987 -0.09135,-0.19821 -0.140043,-0.29559 -0.147971,-0.29276 -0.312061,-0.57615 -0.469222,-0.86403 -0.142186,-0.24943 -0.293208,-0.49302 -0.440283,-0.73949 -0.08105,-0.13973 -0.167322,-0.27552 -0.253731,-0.41186 -0.08252,-0.14099 -0.162364,-0.28448 -0.248564,-0.42323 -0.102069,-0.16444 -0.205976,-0.32699 -0.299206,-0.49661 -0.05977,-0.11016 -0.12094,-0.21995 -0.19017,-0.32453 -0.07024,-0.10754 -0.132393,-0.2213 -0.210323,-0.32246 -0.02254,-0.03 -0.04387,-0.062 -0.06563,-0.0925 0.04543,0.11774 0.100374,0.21241 0.12144,0.33848 0.0373,0.22322 0.103151,0.46807 0.146761,0.54467 0.04361,0.0766 0.08819,0.43222 0.09922,0.79065 0.01103,0.35843 0.07195,0.80428 0.134875,0.99012 0.06292,0.18585 0.08494,0.33797 0.04909,0.33797 -0.03585,0 -0.548195,-0.24295 -1.138432,-0.53951 -0.590224,-0.29657 -1.253082,-0.61926 -1.472778,-0.71726 l -0.399459,-0.17829 0.577226,-0.41393 c 0.606951,-0.43585 1.078684,-1.26859 0.940511,-1.65933 -0.04494,-0.12709 -0.287178,-0.35239 -0.538469,-0.50126 L 62.823556,328.335 h -1.86862 l -1.868103,0.001 -1.384412,0.27595 c -4.268672,0.85151 -8.746452,2.50223 -10.36991,3.82303 l -0.544152,0.44235 -0.978235,-1.07126 -0.978752,-1.07125 -1.106909,-0.6966 c -1.057194,-0.66473 -6.375845,-3.26954 -6.982003,-3.35276 -0.236007,-0.0324 -0.62978,-0.12746 -0.875399,-0.21136 -0.113982,-0.0389 -0.360558,-0.0733 -0.560689,-0.11576 -0.16853,-0.006 -0.337086,-0.009 -0.505395,-0.0191 -0.21488,-0.0191 -0.428305,-0.0476 -0.643372,-0.0646 -0.165025,-0.013 -0.330665,-0.0161 -0.496094,-0.0191 -0.155674,-0.002 -0.311465,-0.004 -0.467155,-0.004 -0.152608,-5.2e-4 -0.305245,-4.3e-4 -0.457853,-5.1e-4 z m 30.736108,0.96221 c -0.01503,0.002 0.02312,0.0684 0.06253,0.13746 -0.01251,-0.0397 -0.02514,-0.0793 -0.03669,-0.11937 -0.0069,-0.004 -0.02225,-0.0185 -0.02584,-0.0181 z m -15.988688,7.81038 0.750342,0.15503 c 0.412633,0.0854 1.517872,0.19801 2.456181,0.25011 l 1.705839,0.0946 -0.923458,0.49558 c -1.162218,0.62359 -2.017008,1.38012 -2.580721,2.28254 l -0.439766,0.70384 0.827339,-0.84646 c 1.701168,-1.7404 4.139364,-2.51699 5.847705,-1.86294 1.088687,0.4168 2.434975,1.54872 3.016871,2.53576 0.456744,0.77495 0.333074,0.84083 -0.20774,0.11059 -0.239696,-0.32369 -0.639059,-0.74332 -0.887801,-0.93224 l -0.452169,-0.34313 0.512631,0.62477 c 0.921108,1.12194 1.383378,2.52789 1.383378,4.20852 0,1.53686 -0.396067,2.67249 -1.414901,4.05867 l -0.58446,0.7953 -0.812354,0.44494 c -0.446825,0.24475 -1.168888,0.5457 -1.604036,0.66869 v 0.001 c -0.435178,0.12299 -0.918043,0.21888 -1.07332,0.21188 -0.396305,-0.0168 -1.867234,-0.37859 -2.327506,-0.57258 -0.533022,-0.22464 -1.637806,-1.3774 -2.260328,-2.35799 l -0.520381,-0.82011 -0.355017,-0.0837 c -0.195241,-0.0459 -0.432283,-0.10906 -0.526583,-0.14056 l -0.171566,-0.0574 0.136943,-0.39015 c 0.07517,-0.21455 0.173848,-0.84181 0.219108,-1.39423 l 0.08165,-1.00459 -0.21394,-1.09348 c -0.117689,-0.60141 -0.419047,-1.54724 -0.66921,-2.10219 l -0.454752,-1.00924 -0.91674,-0.98599 -0.91674,-0.9865 1.075903,-0.008 1.075903,-0.008 0.611333,-0.32143 z m 21.452954,5.27616 -0.0677,0.0145 v 0.0553 l 0.0677,-0.0346 z m -0.06614,0.27957 c 3.34e-4,0.007 5e-5,0.0135 5.16e-4,0.0202 l 0.01602,-0.0191 z m 2.211751,16.44551 -0.132292,0.16175 c 0.0059,0.008 0.01229,0.0164 0.01809,0.0248 l 5.17e-4,5.2e-4 z m 1.529106,2.84737 -0.03049,0.0532 0.07545,-0.0212 c -0.01473,-0.003 -0.0277,-0.006 -0.04444,-0.009 -1.27e-4,-3e-5 -3.73e-4,-0.0142 -5.16e-4,-0.0233 z m 1.454691,13.42295 c -2.46e-4,0.003 -10e-4,0.005 -10e-4,0.008 -0.0076,0.0881 -0.01134,0.17665 -0.01395,0.2651 h 0.186035 l -0.152962,-0.19999 c -0.0306,-0.04 -0.0046,-0.0415 -0.01809,-0.0729 z m 2.784843,19.32182 -0.02119,0.0574 c 0.0081,0.003 0.01615,0.006 0.02429,0.009 z m -61.591589,5.40949 0.02015,0.0687 c 0.0065,-0.003 0.01261,-0.007 0.01912,-0.0103 z m -6.9003543,7.23884 0.032556,0.0909 c 0.00718,-0.0141 0.014013,-0.0283 0.021187,-0.0424 z M 15.53807,419.1 c 1.86e-4,5.8e-4 0.0058,0.006 0.0088,0.009 8.52e-4,3.7e-4 0.0017,0.001 0.0026,0.001 -0.0014,-0.002 -0.0027,-0.004 -0.0041,-0.005 -0.0054,-0.005 -0.0075,-0.006 -0.0072,-0.005 z m 67.725065,1.3131 c -0.02535,0.0104 -0.05069,0.0203 -0.07597,0.031 0.105106,0.11526 0.185835,0.18919 0.187069,0.14883 8.15e-4,-0.0266 -0.07697,-0.11942 -0.111104,-0.17983 z" /><ellipse
         style="opacity:1;fill:#d47000;fill-opacity:1;fill-rule:evenodd;stroke-width:0.848;paint-order:fill markers stroke"
         id="path56"
         cx="54.605534"
         cy="342.47644"
         rx="1.3862705"
         ry="1.3186475" /><ellipse
         style="opacity:1;fill:#d47000;fill-opacity:1;fill-rule:evenodd;stroke-width:0.848;paint-order:fill markers stroke"
         id="path57"
         cx="41.621925"
         cy="341.93546"
         rx="1.4538934"
         ry="1.3862705" /></g><path
       style="opacity:1;fill:#d44e00;fill-opacity:1;fill-rule:evenodd;stroke-width:0.328613;paint-order:fill markers stroke"
       d="m 90.061217,130.69867 c 0,0 3.441274,2.32828 6.798827,-0.69529 3.357566,-3.02356 0,0 0,0 v 0 c 0,0 -2.428604,3.45429 -4.366345,2.75101 -1.937734,-0.70327 -2.507765,-1.94488 -2.432482,-2.05572 z"
       id="path73" /><text
       xml:space="preserve"
       style="font-weight:bold;font-size:20.3383px;line-height:0.7;font-family:'Gill Sans MT';-inkscape-font-specification:'Gill Sans MT, Bold';text-align:center;text-anchor:middle;opacity:1;fill:#d47000;fill-opacity:1;fill-rule:evenodd;stroke-width:3.49206;paint-order:fill markers stroke"
       x="109.57251"
       y="127.46927"
       id="text251"
       transform="scale(0.93758796,1.0665666)"><tspan
         id="tspan251"
         style="text-align:start;text-anchor:start;stroke-width:3.49206"
         x="109.57251"
         y="127.46927">HALVING</tspan><tspan
         style="text-align:start;text-anchor:start;stroke-width:3.49206"
         x="109.57251"
         y="141.70609"
         id="tspan253" /></text><text
       xml:space="preserve"
       style="font-weight:bold;font-size:26.8626px;line-height:0.7;font-family:'Gill Sans MT';-inkscape-font-specification:'Gill Sans MT, Bold';text-align:start;text-anchor:start;opacity:1;fill:#2b1100;fill-opacity:1;fill-rule:evenodd;stroke-width:4.61225;paint-order:fill markers stroke"
       x="113.83251"
       y="148.54027"
       id="text254"
       transform="scale(0.94735525,1.0555702)"><tspan
         id="tspan254"
         style="fill:#2b1100;stroke-width:4.61225"
         x="113.83251"
         y="148.54027">ON</tspan></text><text
       xml:space="preserve"
       style="font-weight:bold;font-size:24.1084px;line-height:0.7;font-family:'Gill Sans MT';-inkscape-font-specification:'Gill Sans MT, Bold';text-align:start;text-anchor:start;opacity:1;fill:#d47000;fill-opacity:1;fill-rule:evenodd;stroke-width:4.13938;paint-order:fill markers stroke"
       x="174.17346"
       y="136.21709"
       id="text255"
       transform="scale(0.86997941,1.1494525)"><tspan
         id="tspan255"
         style="stroke-width:4.13938"
         x="174.17346"
         y="136.21709">SOL</tspan></text></g></svg>
