<?xml version="1.0" encoding="UTF-8" standalone="no"?>
<!-- Created with Inkscape (http://www.inkscape.org/) -->

<svg
   width="25.067556mm"
   height="27.776665mm"
   viewBox="0 0 25.067557 27.776665"
   version="1.1"
   id="svg1"
   xml:space="preserve"
   xmlns="http://www.w3.org/2000/svg"
   xmlns:svg="http://www.w3.org/2000/svg"><defs
     id="defs1"><linearGradient
       x1="0"
       y1="0"
       x2="1"
       y2="0"
       gradientUnits="userSpaceOnUse"
       gradientTransform="matrix(153.63333,219.63334,-219.63334,153.63333,-11.41737,824.90413)"
       spreadMethod="pad"
       id="linearGradient7"><stop
         style="stop-opacity:1;stop-color:#724d17"
         offset="0"
         id="stop6" /><stop
         style="stop-opacity:1;stop-color:#593310"
         offset="1"
         id="stop7" /></linearGradient><linearGradient
       x1="0"
       y1="0"
       x2="1"
       y2="0"
       gradientUnits="userSpaceOnUse"
       gradientTransform="matrix(153.63333,219.63334,-219.63334,153.63333,-12.16605,825.42781)"
       spreadMethod="pad"
       id="linearGradient9"><stop
         style="stop-opacity:1;stop-color:#724d17"
         offset="0"
         id="stop8" /><stop
         style="stop-opacity:1;stop-color:#593310"
         offset="1"
         id="stop9" /></linearGradient><linearGradient
       x1="0"
       y1="0"
       x2="1"
       y2="0"
       gradientUnits="userSpaceOnUse"
       gradientTransform="matrix(144.96533,0,0,144.96533,-43.29054,881.34057)"
       spreadMethod="pad"
       id="linearGradient11"><stop
         style="stop-opacity:1;stop-color:#a7a9ac"
         offset="0"
         id="stop10" /><stop
         style="stop-opacity:1;stop-color:#e6e7e8"
         offset="1"
         id="stop11" /></linearGradient><linearGradient
       x1="0"
       y1="0"
       x2="1"
       y2="0"
       gradientUnits="userSpaceOnUse"
       gradientTransform="matrix(145.08885,0,0,145.08885,-43.41405,876.47969)"
       spreadMethod="pad"
       id="linearGradient13"><stop
         style="stop-opacity:1;stop-color:#f1f2f2"
         offset="0"
         id="stop12" /><stop
         style="stop-opacity:1;stop-color:#bcbec0"
         offset="1"
         id="stop13" /></linearGradient><linearGradient
       x1="0"
       y1="0"
       x2="1"
       y2="0"
       gradientUnits="userSpaceOnUse"
       gradientTransform="matrix(-10.877777,-9.2888887,9.2888887,-10.877777,2.92232,841.71565)"
       spreadMethod="pad"
       id="linearGradient15"><stop
         style="stop-opacity:1;stop-color:#461b0f"
         offset="0"
         id="stop14" /><stop
         style="stop-opacity:1;stop-color:#724d17"
         offset="1"
         id="stop15" /></linearGradient><linearGradient
       x1="0"
       y1="0"
       x2="1"
       y2="0"
       gradientUnits="userSpaceOnUse"
       gradientTransform="matrix(-14.544444,-14.177777,14.177777,-14.544444,26.91365,877.11368)"
       spreadMethod="pad"
       id="linearGradient17"><stop
         style="stop-opacity:1;stop-color:#724d17"
         offset="0"
         id="stop16" /><stop
         style="stop-opacity:1;stop-color:#461b0f"
         offset="1"
         id="stop17" /></linearGradient></defs><g
     id="layer-MC1"
     transform="matrix(0.26458333,0,0,0.26458334,12.533807,-202.09995)"><g
       id="g19"
       transform="matrix(0.51070818,0,0,0.47763388,-25.19973,370.10211)"><path
         id="path7"
         d="m -10.83299,825.58909 c -3.18266,2.19867 -4.004,6.61467 -1.80533,9.796 v 0 l 6.7186699,9.72533 4.8693301,-17.732 c -1.144,-1.65733 -2.88933,-2.66933 -4.7666701,-2.948 v 0 c -0.34133,-0.0493 -0.68666,-0.0747 -1.03333,-0.0747 v 0 c -1.38,0 -2.77467,0.4 -3.9826699,1.23333"
         style="fill:url(#linearGradient7);stroke:none;stroke-width:1.33333" /><path
         id="path9"
         d="m 19.43897,881.87979 v 0.0147 l 109.824,159.22131 c 1.15867,1.672 2.90267,2.684 4.78133,2.9614 v 0 c 1.70134,0.2506 3.50534,-0.116 5.016,-1.1574 v 0 c 3.18267,-2.2 4.004,-6.6146 1.804,-9.7986 v 0 L 20.90564,859.2038 Z"
         style="fill:url(#linearGradient9);stroke:none;stroke-width:1.33333" /><path
         id="path11"
         d="m -43.29036,927.09713 c 0.49867,-1.028 16.764,-34.21734 52.448,-60.11867 v 0 c 3.71067,-2.68533 7.62667,-5.28 11.748,-7.77466 v 0 c 21.13467,-12.73067 47.872,-22.23334 80.768,-22.6 v 0 c -7.13333,-0.69334 -13.91067,-1.02 -20.37333,-1.02 v 0 c -106.676,0.009 -124.148,89.13466 -124.59067,91.51333"
         style="fill:url(#linearGradient11);stroke:none;stroke-width:1.33333" /><path
         id="path13"
         d="m 5.72564,837.20513 c -2.508,1.40667 -4.98667,2.99067 -7.436,4.72267 v 0 c -1.452,1.056 -2.84533,2.096 -4.20933,3.18266 v 0 c -40.978673,32.50133 -37.47467,80.916 -37.38533,82.00133 v 0 l 0.0147,-0.0147 c 0.46934,-2.52267 20.07867,-102.62267 144.964,-90.49333 v 0 c 0,0 -22.51467,-10.75734 -50.62667,-10.756 v 0 c -14.39733,0 -30.26533,2.82266 -45.32133,11.35733"
         style="fill:url(#linearGradient13);stroke:none;stroke-width:1.33333" /><path
         id="path15"
         d="m -5.9196501,845.11042 c 1.364,-1.08666 2.7573301,-2.12666 4.2093301,-3.18266 v 0 c 2.44932998,-1.732 4.928,-3.316 7.436,-4.72267 v 0 l -6.776,-9.82667 z"
         style="fill:url(#linearGradient15);stroke:none;stroke-width:1.33333" /><path
         id="path17"
         d="m 9.15764,866.97846 10.28133,14.90133 1.46667,-22.67599 c -4.12133,2.49466 -8.03733,5.08933 -11.748,7.77466"
         style="fill:url(#linearGradient17);stroke:none;stroke-width:1.33333" /></g></g></svg>
